<svg width="672" height="427" viewBox="0 0 672 427" fill="none" xmlns="http://www.w3.org/2000/svg">
<path d="M671.976 331.895C669.548 324.142 664.767 317.337 658.296 312.425C647.998 304.943 634.397 304.051 622.111 305.162C590.432 308.042 560.695 323.474 532.523 336.981C519.516 343.242 506.479 349.753 492.768 354.323C473.251 360.834 454 368.675 433.951 373.418C413.901 378.16 394.071 378.379 374.476 371.852C356.656 365.773 340.024 356.655 325.315 344.901C294.858 320.908 273.149 288.275 255.808 253.998C247.074 236.782 239.734 218.908 231.392 201.488C223.957 185.931 214.895 170.624 201.138 159.84C187.881 149.432 171.4 144.424 154.794 142.89C137.687 141.283 120.429 142.773 103.85 147.288C74.2373 155.63 49.07 175.46 28.3008 197.591C19.2454 207.254 10.7834 217.456 2.96135 228.142L0.754517 235.373C5.09514 229.238 9.60793 223.244 14.2929 217.39C33.7787 193.115 57.0365 170.342 85.428 156.819C99.6604 150.202 114.998 146.286 130.66 145.269C148.737 143.845 167.691 145.269 184.438 152.672C218.558 167.838 230.249 205.886 244.836 237.079C260.785 271.262 279.582 304.818 306.581 331.582C318.965 344.001 333.038 354.613 348.385 363.103C363.723 371.477 380.83 378.066 398.375 379.318C417.877 380.711 437.128 375.797 455.503 369.74C465.034 366.609 474.456 363.119 483.957 359.848C491.141 357.375 498.325 355.153 505.321 352.147C534.135 340.112 561.29 324.304 591.058 314.584C613.549 307.213 649.25 299.043 664.995 322.958C667.919 327.507 670.036 332.527 671.256 337.795C671.537 335.823 671.819 333.867 671.976 331.895Z" fill="white"/>
<path d="M379.25 2.07522L372.582 0.322281C346.297 2.85424 320.207 7.1154 294.482 13.0781C281.498 16.0808 268.708 19.8702 256.184 24.4253C245.377 28.2278 235.017 33.1978 225.288 39.247C213.143 47.0727 204.08 58.3729 193.86 68.421C180.619 81.4272 164.123 93.4631 144.731 93.4631C135.988 93.4001 127.412 91.0647 119.845 86.6861C113.115 82.8515 106.526 77.4048 102.911 70.44C99.8739 63.9846 97.9731 57.0539 97.2917 49.9525C96.3897 42.6227 96.1278 35.2282 96.5092 27.8529C96.5092 27.1329 96.5092 26.4286 96.6344 25.7087C95.7423 26.7886 94.8345 27.8842 93.9424 28.9954C93.3354 39.6503 94.3112 50.3362 96.8378 60.7049C98.2202 67.2408 101.217 73.3265 105.556 78.4065C111.312 84.6771 118.465 89.5029 126.434 92.4927C134.552 95.6196 143.336 96.6111 151.946 95.3725C161.072 93.8416 169.759 90.3551 177.411 85.1522C185.426 79.663 192.82 73.3182 199.463 66.2298C205.473 60.0945 211.155 53.4897 217.666 47.8865C225.757 40.9217 235.367 35.8037 245.056 31.5153C257.035 26.3407 269.388 22.0767 282.008 18.7595C310.324 11.2987 339.187 6.09138 368.325 3.18647C371.956 2.8004 375.598 2.42999 379.25 2.07522Z" fill="white"/>
<path d="M280.709 167.102C280.709 167.102 265.574 163.096 267.092 152.828C267.327 151.263 259.267 138.601 259.267 138.601C259.267 138.601 263.962 127.426 267.812 125.486C270.301 124.218 285.123 136.551 285.123 136.551C285.123 136.551 288.566 162.157 288.503 162.219C288.441 162.282 280.709 167.102 280.709 167.102Z" fill="#EA8577"/>
<path d="M274.949 124.672L270.911 119.929L268.861 124.343L271.459 128.632L274.949 124.672Z" fill="#EA8577"/>
<path d="M329.964 212.256C329.244 202.365 330.981 194.179 333.861 193.976C336.741 193.772 339.652 201.613 340.372 211.505C341.092 221.397 339.182 229.676 336.302 229.88C333.423 230.083 330.621 222.148 329.964 212.256Z" fill="#6F3D47"/>
<path d="M268.635 161.714L258.731 155.325C257.985 154.843 257.341 154.22 256.836 153.49C256.331 152.759 255.975 151.937 255.788 151.069C255.601 150.201 255.586 149.304 255.745 148.431C255.905 147.557 256.234 146.724 256.716 145.978L274.671 118.149C275.609 116.695 277.087 115.673 278.779 115.308C280.471 114.943 282.239 115.265 283.693 116.203L294.03 122.873C294.75 123.337 295.372 123.939 295.86 124.644C296.347 125.349 296.691 126.143 296.872 126.981C297.052 127.819 297.066 128.684 296.913 129.527C296.759 130.371 296.441 131.175 295.976 131.895L278.021 159.724C277.049 161.231 275.518 162.29 273.765 162.668C272.012 163.046 270.181 162.712 268.674 161.74L268.635 161.714Z" fill="#503C6B"/>
<path d="M275.527 162.479L255.103 149.301L275.221 118.119C276.068 116.845 277.385 115.959 278.883 115.655C280.382 115.351 281.94 115.654 283.216 116.497L293.934 123.412C295.221 124.243 296.126 125.55 296.448 127.048C296.771 128.545 296.486 130.109 295.656 131.396L275.58 162.513L275.527 162.479Z" fill="white"/>
<path d="M276.734 162.845C276.734 162.845 276.577 155.27 279.645 150.841C281.716 148.004 284.348 145.623 287.377 143.845C287.377 143.845 289.896 135.909 291.634 133.843C293.371 131.777 295.296 131.464 295.797 132.184C296.298 132.904 294.232 134.626 294.232 136.191C294.325 137.778 294.129 139.369 293.653 140.886C292.98 143.046 293.653 146.912 291.978 151.842C290.303 156.773 288.848 159.324 286.766 160.826C284.685 162.329 278.095 167.102 276.734 162.845Z" fill="#F8A68B"/>
<path d="M268.51 132.366C267.494 133.945 266.969 135.79 267.001 137.668C267.034 139.545 267.623 141.371 268.693 142.914C269.763 144.457 271.267 145.649 273.014 146.338C274.762 147.027 276.674 147.182 278.51 146.785C280.346 146.388 282.022 145.455 283.328 144.106C284.634 142.756 285.511 141.05 285.847 139.202C286.183 137.355 285.964 135.449 285.217 133.726C284.47 132.003 283.229 130.54 281.65 129.522C280.602 128.844 279.429 128.379 278.2 128.154C276.971 127.93 275.71 127.95 274.489 128.215C273.268 128.479 272.111 128.982 271.085 129.694C270.059 130.406 269.184 131.314 268.51 132.366V132.366Z" fill="#FFE9E9"/>
<path d="M273.078 141.52L273.84 142.012C274.988 142.753 276.518 142.423 277.259 141.275L280.501 136.252C281.242 135.105 280.912 133.574 279.765 132.833L279.002 132.341C277.854 131.6 276.324 131.93 275.583 133.078L272.341 138.101C271.6 139.249 271.93 140.779 273.078 141.52Z" fill="#FF5F5F"/>
<path d="M337.868 192.739L304.531 202.521C304.531 202.521 289.443 157.477 288.707 150.715C288.347 147.382 280.49 163.236 276.734 162.845C276.734 162.845 283.652 228.581 289.912 229.191C296.173 229.801 339.433 223.807 344.692 219.941C349.951 216.075 337.868 192.739 337.868 192.739Z" fill="#F8A68B"/>
<path d="M332.312 223.635C336.115 212.961 336.35 203.006 333.454 194.038L335.88 193.334C337.04 193.987 337.924 195.038 338.369 196.292L344.504 220.066C342.579 221.318 339.464 222.242 332.312 223.635Z" fill="#EA8577"/>
<path d="M375.525 181.329L333.438 194.038C338.243 198.342 341.264 225.341 336.475 229.88L368.184 217.922L375.525 181.329Z" fill="white"/>
<path d="M152.196 280.308L115.275 302.47C111.456 311.376 112.145 318.122 121.191 320.454L159.991 305.115L152.196 280.308Z" fill="#F8A68B"/>
<path d="M142.665 285.99L145.513 310.828L158.801 305.585L142.665 285.99Z" fill="#EA8577"/>
<path d="M170.54 355.716L155.953 379.193C155.139 392.919 156.673 394.672 169.522 390.415L197.068 362.743L170.54 355.716Z" fill="#F8A68B"/>
<path d="M164.091 366.093L180.181 379.709L171.776 392.23C171.776 392.23 179.602 405.831 166.439 410.777C163.309 411.951 153.918 409.885 146.483 410.777C137.985 411.795 131.098 415.629 123.116 414.533C108.122 412.468 100.265 409.697 99.3105 403.202C98.3558 396.707 112.051 400.369 122.443 396.613C136.529 391.542 150.615 380.68 153.214 378.676C157.815 375.264 164.091 366.093 164.091 366.093Z" fill="white"/>
<path d="M338.603 212.35L354.474 205.902L357.275 220.833L351.312 224.276L336.475 229.88C338.838 227.657 339.307 220.035 338.603 212.35Z" fill="#CBE3FF"/>
<path d="M168.521 358.987L184.234 375.515L188.132 371.68L168.521 358.987Z" fill="#EA8577"/>
<path d="M131.38 292.798C133.196 299.168 134.745 306.117 136.874 314.256L124.462 320.735C124.462 320.735 116.997 335.886 106.135 332.442C95.2726 328.999 99.3263 321.252 96.2899 308.402C94.13 299.199 91.078 289.088 91.8137 280.058C92.7997 268.069 100.797 257.442 107.089 259.57C113.381 261.699 109.954 271.449 110.955 281.482C111.766 288.227 114.698 294.541 119.329 299.512L131.38 292.798Z" fill="white"/>
<path d="M400.316 153.188L407.312 177.37C407.312 177.37 379.14 209.877 368.716 206.058C358.292 202.239 384.853 178.23 384.853 178.23L379.656 163.409C379.656 163.409 390.503 148.947 400.316 153.188Z" fill="#F8A68B"/>
<path d="M383.835 175.538L381.425 168.667C388.264 164.457 402.178 161.077 402.178 161.077C402.178 161.077 395.73 174.74 383.835 175.538Z" fill="#EA8577"/>
<path d="M387.201 303.065C387.201 303.065 390.988 290.544 406.186 263.577C421.383 236.61 439.617 214.385 435.078 201.332C430.539 188.279 407.313 177.37 407.313 177.37C407.313 177.37 394.134 191.143 385.401 189.03C376.667 186.917 384.916 178.23 384.916 178.23C384.916 178.23 374.617 179.796 362.738 188.545C360.546 190.11 357.401 192.238 357.009 193.913C356.618 195.588 353.879 203.742 352.126 205.902C345.584 213.728 341.89 218.313 339.965 223.447C338.4 232.4 340.309 237.173 339.01 242.229C336.803 250.805 317.756 276.098 317.756 276.098L387.201 303.065Z" fill="white"/>
<path d="M399.221 158.651C399.221 158.651 392.584 172.189 380.846 172.518C369.108 172.846 366.009 170.17 365.351 167.822C364.694 165.475 370.704 153.861 370.704 153.861C370.704 153.861 365.899 151.529 366.009 149.792C366.103 148.743 376.964 137.662 376.964 137.662L381.91 127.912C381.91 127.912 386.308 118.239 400.16 127.912C414.011 137.584 399.221 158.651 399.221 158.651Z" fill="#F8A68B"/>
<path d="M429.819 223.635L407.203 252.699L399.08 251.118L361.595 274.11L402.774 281.185L432.934 240.037L429.819 223.635Z" fill="#CBE3FF"/>
<path d="M406.843 253.184C406.882 253.193 406.923 253.188 406.96 253.171C406.997 253.154 407.027 253.126 407.046 253.091L420.976 235.076C421.019 235.032 421.043 234.973 421.043 234.912C421.043 234.85 421.019 234.791 420.976 234.747C420.929 234.703 420.868 234.679 420.804 234.679C420.74 234.679 420.678 234.703 420.632 234.747L406.717 252.778C406.674 252.821 406.65 252.88 406.65 252.942C406.65 253.003 406.674 253.062 406.717 253.106C406.731 253.128 406.75 253.146 406.771 253.159C406.793 253.173 406.817 253.181 406.843 253.184Z" fill="#779FFF"/>
<path d="M393.758 242.714C389.251 235.138 387.591 227.798 390.08 226.327C392.569 224.856 398.203 229.801 402.711 237.377C407.218 244.952 408.877 252.277 406.404 253.748C403.931 255.219 398.266 250.273 393.758 242.714Z" fill="#6F3D47"/>
<path d="M397.624 149.636C397.624 149.636 383.882 149.213 381.394 141.293C381.09 140.746 380.744 140.223 380.361 139.728C380.361 139.728 382.176 137.318 380.721 136.285C380.753 135.127 381.053 133.992 381.596 132.969C382.139 131.945 382.91 131.061 383.851 130.384L402.883 140.495L397.624 149.636Z" fill="#EA8577"/>
<path d="M349.262 240.225C346.03 241.43 342.495 241.561 339.182 240.601C339.683 236.798 339.026 231.993 339.355 226.327C340.444 228.151 341.8 229.802 343.377 231.226C348.385 235.561 352.721 238.754 349.262 240.225Z" fill="#CBE3FF"/>
<path d="M394.212 219.049C383.757 229.88 374.617 228.815 370.203 238.895C365.789 248.974 368.497 258.036 350.514 259.633C353.159 260.462 361.47 251.087 372.425 241.822C380.238 234.777 387.52 227.165 394.212 219.049V219.049Z" fill="#CBE3FF"/>
<path d="M395.449 278.868C376.104 271.7 352.282 265.299 328.445 265.126L313.514 289.042L359.936 306.571L395.449 278.868Z" fill="#4A76D1"/>
<path d="M385.557 152.656C385.197 153.94 386.652 155.473 388.796 156.068C390.941 156.663 392.975 156.068 393.335 154.832C393.695 153.595 392.255 152.015 390.095 151.42C387.936 150.825 385.917 151.451 385.557 152.656Z" fill="#EA8577"/>
<path d="M378.827 137.991L378.217 143.265C378.217 143.265 380.83 146.02 383.162 146.396C385.494 146.771 386.653 146.693 386.653 146.693L386.778 142.201L378.827 137.991Z" fill="#EA8577"/>
<path d="M372.88 161.624C372.786 162.11 373.709 162.704 374.946 162.955C376.182 163.205 377.262 162.955 377.356 162.532C377.45 162.11 376.448 161.875 375.212 161.624C373.975 161.374 372.88 161.139 372.88 161.624Z" fill="#EA8577"/>
<path d="M366.102 149.761C365.805 150.199 366.822 151.326 368.356 152.484C369.89 153.642 371.393 154.049 371.69 153.642C371.987 153.235 370.892 152.453 369.342 151.373C367.793 150.293 366.4 149.338 366.102 149.761Z" fill="#EA8577"/>
<path d="M406.811 246.454C406.811 246.454 390.424 268.836 363.833 275.613C337.241 282.39 311.432 253.936 308.427 250.743C305.422 247.55 313.013 237.189 313.013 237.189C313.013 237.189 312.184 232.979 313.138 232.212C314.093 231.445 320.432 230.49 322.138 231.727C324.015 233.576 325.694 235.616 327.146 237.815C328.654 237.993 330.086 238.571 331.294 239.49C333.297 241.055 330.261 249.24 330.261 249.24C330.261 249.24 338.087 254.202 346.695 251.666C355.303 249.131 361.078 251.463 361.078 251.463L390.331 223.635C400.457 228.878 405.606 241.055 406.811 246.454Z" fill="#F8A68B"/>
<path d="M362.346 272.795C361.204 269.916 363.332 266.378 367.041 264.892C370.751 263.405 374.789 264.516 375.916 267.396C376.361 268.635 376.361 269.991 375.916 271.23C372.355 272.958 368.633 274.331 364.803 275.331C363.686 274.838 362.804 273.928 362.346 272.795V272.795Z" fill="#EA8577"/>
<path d="M390.346 223.619C396.888 234.074 402.116 243.496 402.46 251.588C404.063 250.035 405.52 248.337 406.811 246.517C405.938 241.718 404.007 237.173 401.16 233.212C398.312 229.252 394.618 225.975 390.346 223.619V223.619Z" fill="#EA8577"/>
<path d="M313.013 237.189L317.051 233.98C317.051 233.98 314.469 232.791 313.577 233.573C312.685 234.356 313.013 237.189 313.013 237.189Z" fill="#EA8577"/>
<path d="M393.837 180.656C390.816 182.018 388.515 182.128 387.404 180.187C387.232 180.456 387.131 180.765 387.111 181.084C387.091 181.403 387.153 181.722 387.291 182.01C387.429 182.298 387.638 182.547 387.899 182.732C388.16 182.917 388.464 183.032 388.781 183.067C391.379 183.661 393.837 180.656 393.837 180.656Z" fill="#EA8577"/>
<path d="M327.1 237.815L328.79 243.543C328.79 243.543 329.917 241.102 329.197 239.693C328.739 238.841 327.997 238.176 327.1 237.815V237.815Z" fill="#EA8577"/>
<path d="M390.299 223.635L406.138 205.166C406.16 205.143 406.187 205.124 406.217 205.111C406.246 205.098 406.278 205.091 406.311 205.091C406.343 205.091 406.375 205.098 406.405 205.111C406.434 205.124 406.461 205.143 406.483 205.166C406.527 205.213 406.551 205.274 406.551 205.338C406.551 205.402 406.527 205.464 406.483 205.511L390.738 223.885L390.299 223.635Z" fill="#779FFF"/>
<path d="M382.489 288.822C382.489 288.822 259.361 226.389 249.234 224.574C239.108 222.758 280.333 301.156 317.74 318.028C355.147 334.9 382.489 288.822 382.489 288.822Z" fill="#779FFF"/>
<path d="M248.42 224.636L143.494 285.614L163.622 304.724L266.294 265.252L248.42 224.636Z" fill="#779FFF"/>
<path d="M261.755 254.953L266.294 265.252L163.622 304.724L159.177 300.498C165.437 295.975 227.823 251.275 242.129 251.134C245.541 251.103 252.724 252.621 261.755 254.953Z" fill="#5587F0"/>
<path d="M259.689 254.421C290.037 262.106 369.436 308.621 369.436 308.621L323.327 320.109C321.422 319.537 319.556 318.841 317.74 318.028C296.188 308.261 273.196 277.929 259.689 254.421Z" fill="#5587F0"/>
<path d="M241.409 253.012C237.574 256.387 234.096 260.147 231.032 264.234C227.056 269.759 222.236 276.755 217.087 284.377C196.536 314.835 170.602 355.716 170.602 355.716L198.931 364.809L257.576 307.479C257.576 307.479 293.23 328.999 322.795 324.867C332.593 323.506 330.793 313.426 317.975 303.488C310.736 295.855 302.93 288.782 294.623 282.327C273.024 264.813 248.389 248.692 241.409 253.012Z" fill="#779FFF"/>
<path d="M187.365 359.926C187.365 359.926 237.198 283.235 250.205 280.308C263.211 277.381 308.568 322.911 308.568 322.911L295.797 335.432C272.555 335.135 257.514 307.432 257.514 307.432L198.868 364.762L187.365 359.926Z" fill="#5587F0"/>
<path d="M372.128 306.023L372.363 305.601C371.408 305.037 275.325 249.694 248.89 248.379C237.793 247.832 218.84 255.673 192.545 271.669C172.981 283.579 156.547 295.803 156.297 295.928L156.594 296.319C156.751 296.194 173.263 283.986 192.796 272.091C218.636 256.362 238.028 248.317 248.874 248.865C275.153 250.179 371.158 305.46 372.128 306.023Z" fill="#3849C9"/>
<path d="M186.379 355.325C188.664 353.321 242.598 306.352 243.584 302.11C243.816 300.01 243.641 297.884 243.068 295.85C242.426 292.72 241.816 289.589 243.756 288.509C243.877 288.434 244.012 288.387 244.153 288.371C244.293 288.354 244.436 288.37 244.57 288.415C245.681 288.854 246.542 291.546 247.372 294.191C248.201 296.836 249.078 299.59 250.346 300.123C250.514 300.203 250.699 300.245 250.885 300.245C251.072 300.245 251.257 300.203 251.425 300.123C253.147 299.277 253.319 295.865 253.507 292.297C253.695 288.728 253.898 284.988 255.777 284.988C255.923 284.985 256.068 285.013 256.203 285.069C256.337 285.126 256.459 285.21 256.559 285.316C257.702 286.459 257.639 290.294 257.608 293.674C257.608 297.603 257.514 300.999 259.016 301.359C260.519 301.719 261.849 299.919 263.211 298.025C264.573 296.132 266.028 294.159 267.609 294.598C270.739 295.474 296.439 321.674 306.424 334.884L306.815 334.602C296.564 321.033 271.068 295.052 267.687 294.128C265.793 293.596 264.26 295.693 262.773 297.744C261.505 299.497 260.3 301.156 259.079 300.874C257.858 300.592 257.999 296.93 258.046 293.69C258.046 290.043 258.14 286.271 256.872 284.988C256.725 284.833 256.547 284.711 256.351 284.627C256.155 284.544 255.943 284.501 255.73 284.503C253.382 284.503 253.194 288.275 252.991 292.328C252.803 295.631 252.631 299.058 251.175 299.794C251.067 299.844 250.95 299.87 250.831 299.87C250.712 299.87 250.594 299.844 250.486 299.794C249.422 299.356 248.593 296.664 247.794 294.175C246.887 291.311 246.026 288.603 244.664 288.087C244.465 288.012 244.251 287.984 244.039 288.006C243.827 288.028 243.623 288.098 243.443 288.212C241.19 289.511 241.878 292.704 242.52 296.038C243.076 298.027 243.251 300.103 243.036 302.157C242.269 305.475 205.379 338.28 185.972 355.168L186.379 355.325Z" fill="#3849C9"/>
<path d="M384.962 146.834H385.588C385.658 146.847 385.73 146.844 385.799 146.826C385.868 146.808 385.931 146.775 385.986 146.729C386.041 146.684 386.084 146.627 386.115 146.562C386.145 146.498 386.16 146.428 386.16 146.357C386.16 146.286 386.145 146.215 386.115 146.151C386.084 146.087 386.041 146.03 385.986 145.984C385.931 145.939 385.868 145.906 385.799 145.887C385.73 145.869 385.658 145.867 385.588 145.879C384.323 146.064 383.031 145.883 381.866 145.356C380.701 144.828 379.711 143.978 379.015 142.905C378.942 142.8 378.83 142.727 378.704 142.704C378.578 142.68 378.448 142.708 378.342 142.78C378.235 142.856 378.162 142.97 378.139 143.099C378.116 143.228 378.143 143.361 378.217 143.469C378.94 144.579 379.947 145.476 381.132 146.068C382.318 146.659 383.64 146.924 384.962 146.834V146.834Z" fill="#522D34"/>
<path d="M432.761 144.392C431.901 150.042 433.716 155.646 433.481 161.311C433.467 163.977 432.772 166.596 431.462 168.918C430.135 171.116 428.12 172.817 425.73 173.756C423.339 174.695 420.706 174.821 418.237 174.114C417.877 174.005 417.987 173.41 418.362 173.519C420.718 174.178 423.225 174.05 425.502 173.155C427.779 172.259 429.701 170.645 430.977 168.558C433.747 163.863 432.887 158.212 432.308 153.126C431.861 150.193 431.814 147.213 432.167 144.267C432.167 143.876 432.808 144.001 432.761 144.392V144.392Z" fill="#783238"/>
<path d="M412.947 127.16C414.191 126.312 415.622 125.775 417.117 125.595C418.612 125.415 420.129 125.598 421.539 126.127C424.685 127.344 427.357 129.538 429.162 132.388C429.728 133.086 430.127 133.905 430.328 134.781C430.528 135.657 430.526 136.568 430.32 137.443C430.195 137.819 429.6 137.694 429.725 137.334C430.398 135.33 429.193 133.374 428.019 131.84C426.827 130.227 425.353 128.843 423.668 127.755C422.142 126.711 420.342 126.141 418.493 126.116C416.644 126.091 414.829 126.612 413.275 127.614C412.962 127.849 412.618 127.332 412.947 127.113V127.16Z" fill="#783238"/>
<path d="M414.167 126.268C405.011 144.455 394.885 165.506 387.2 169.466C387.044 172.486 402.523 176.509 419.16 174.568C435.797 172.627 436.486 140.902 428.645 132.92C420.803 124.938 414.167 126.268 414.167 126.268Z" fill="#783238"/>
<path d="M397.249 162.25C397.843 165.381 427.111 168.354 429.005 144.173C429.615 127.692 414.168 126.268 414.168 126.268C414.168 126.268 405.935 108.426 390.55 109.756C375.165 111.086 370.579 125.407 371.142 131.668C371.706 137.928 374.711 139.493 374.711 139.493C374.951 138.011 375.501 136.596 376.323 135.34C377.145 134.083 378.222 133.014 379.484 132.2C383.601 129.868 384.039 130.447 384.039 130.447C382.87 131.597 382.022 133.032 381.58 134.611C381.138 136.19 381.117 137.857 381.519 139.447C382.724 145.363 394.807 147.272 394.807 147.272L392.099 144.549C395.014 145.273 398.026 145.527 401.021 145.3C402.789 153.016 401.631 156.976 397.249 162.25Z" fill="#783238"/>
<path d="M419.191 162.892C425.874 164.363 430.022 161.922 432.558 158.932C430.82 166.915 426.579 173.707 419.16 174.584C402.523 176.524 387.044 172.502 387.2 169.481C391.332 167.353 396.168 160.278 401.177 151.373C405.611 157.244 412.002 161.331 419.191 162.892Z" fill="#6A2C31"/>
<path d="M395.844 162.457L397.797 163.815C400.786 165.891 404.892 165.151 406.968 162.163L409.915 157.921C411.992 154.932 411.252 150.826 408.263 148.75L406.31 147.393C403.321 145.316 399.215 146.056 397.139 149.045L394.192 153.286C392.115 156.275 392.855 160.381 395.844 162.457Z" fill="#5587F0"/>
<path d="M400.958 164.489L395.699 160.842C395.191 160.482 394.846 159.938 394.738 159.325C394.629 158.713 394.766 158.083 395.12 157.571L400.645 149.62C400.829 149.365 401.062 149.149 401.331 148.985C401.6 148.821 401.898 148.712 402.21 148.665C402.512 148.605 402.824 148.607 403.125 148.671C403.427 148.736 403.712 148.862 403.963 149.041L409.206 152.688C409.715 153.042 410.063 153.583 410.174 154.193C410.286 154.803 410.151 155.432 409.801 155.943L404.182 163.972C404.001 164.232 403.769 164.453 403.5 164.62C403.231 164.786 402.93 164.896 402.617 164.942C402.326 164.99 402.03 164.99 401.74 164.942C401.451 164.846 401.185 164.692 400.958 164.489V164.489ZM402.241 149.135C401.999 149.176 401.768 149.265 401.561 149.397C401.354 149.529 401.176 149.7 401.036 149.902L395.511 157.852C395.233 158.258 395.126 158.757 395.214 159.24C395.302 159.724 395.577 160.154 395.981 160.435L401.224 164.082C401.63 164.362 402.129 164.474 402.617 164.395C402.857 164.351 403.087 164.259 403.291 164.125C403.496 163.99 403.671 163.816 403.806 163.612L409.331 155.661C409.482 155.46 409.59 155.231 409.649 154.986C409.708 154.742 409.716 154.489 409.674 154.241C409.631 153.993 409.539 153.757 409.402 153.547C409.265 153.336 409.086 153.155 408.877 153.016L403.618 149.369C403.409 149.23 403.175 149.129 402.93 149.072C402.698 149.054 402.465 149.075 402.241 149.135V149.135Z" fill="#503C6B"/>
<path d="M407.437 149.416C407.585 149.449 407.74 149.433 407.878 149.371C408.016 149.309 408.13 149.204 408.204 149.072C408.204 149.072 411.115 144.236 413.713 138.836C417.266 131.449 418.628 126.472 417.751 124.03C417.188 122.465 416.343 121.651 415.2 121.479C414.055 121.427 412.933 121.819 412.07 122.574L412.853 123.811C413.437 123.255 414.207 122.937 415.013 122.919C415.576 123.013 416.045 123.545 416.39 124.484C417.955 128.647 410.129 143.078 406.999 148.274C406.948 148.356 406.915 148.447 406.9 148.542C406.885 148.637 406.889 148.734 406.913 148.828C406.936 148.921 406.978 149.009 407.036 149.086C407.094 149.163 407.166 149.227 407.249 149.276C407.301 149.336 407.365 149.384 407.437 149.416V149.416Z" fill="#5587F0"/>
<path d="M408.047 154.832C407.242 156.084 406.347 157.276 405.371 158.4C405.105 158.682 404.651 158.291 404.917 157.993C405.862 156.913 406.73 155.767 407.515 154.566C407.552 154.495 407.615 154.44 407.691 154.414C407.766 154.388 407.849 154.392 407.922 154.425C408.048 154.425 408.141 154.707 408.047 154.832Z" fill="white"/>
<path d="M404.182 159.965L403.306 161.233C403.251 161.29 403.18 161.328 403.102 161.343C403.031 161.367 402.954 161.367 402.883 161.343C402.855 161.315 402.833 161.282 402.818 161.246C402.803 161.21 402.795 161.171 402.795 161.131C402.795 161.092 402.803 161.053 402.818 161.017C402.833 160.981 402.855 160.948 402.883 160.92L403.76 159.637C403.814 159.58 403.885 159.541 403.963 159.527C404.034 159.503 404.111 159.503 404.182 159.527C404.239 159.586 404.272 159.664 404.272 159.746C404.272 159.828 404.239 159.907 404.182 159.965V159.965Z" fill="white"/>
<path d="M414.308 127.833C413.562 123.9 411.827 120.222 409.269 117.143C406.498 113.841 402.319 110.648 397.749 111.634C397.374 111.728 397.17 111.149 397.561 111.071C399.345 110.8 401.168 110.957 402.88 111.528C404.591 112.1 406.143 113.069 407.406 114.358C409.893 116.601 411.882 119.342 413.244 122.402C414.018 124.128 414.58 125.941 414.919 127.802C414.919 128.178 414.387 128.225 414.308 127.802V127.833Z" fill="#783238"/>
<path d="M330.84 315.915L331.184 315.57C331.028 315.398 314.578 298.886 295.578 282.875C270.019 261.354 252.255 250.962 242.77 251.979C236.635 254.014 223.222 274.329 216.977 284.205L217.76 283.908C224.114 273.907 237.089 254.421 242.896 252.433C265.183 250.132 330.198 315.242 330.84 315.915Z" fill="#3849C9"/>
<path d="M386.871 142.483C386.871 142.577 378.952 140.182 378.263 138.711C377.575 137.24 378.044 134.798 380.814 136.348C383.585 137.897 386.965 141.747 386.871 142.483Z" fill="#6A2C31"/>
<path d="M266.857 123.748C266.764 126.096 267.718 128.021 268.986 128.068C270.254 128.115 271.318 126.253 271.412 123.905C271.506 121.557 271.725 119.053 269.283 119.569C266.842 120.086 266.936 121.401 266.857 123.748Z" fill="#F8A68B"/>
<path d="M263.148 128.428C263.446 131.089 264.713 133.123 265.965 132.983C267.218 132.842 267.984 130.572 267.671 127.912C267.358 125.251 267.186 122.387 264.87 123.341C262.553 124.296 262.851 125.767 263.148 128.428Z" fill="#F8A68B"/>
<path d="M259.392 133.217C259.674 135.8 260.957 137.787 262.162 137.647C263.367 137.506 264.197 135.315 263.931 132.732C263.665 130.15 263.477 127.379 261.161 128.303C258.844 129.226 259.11 130.635 259.392 133.217Z" fill="#F8A68B"/>
<path d="M257.796 140.12C258.562 142.326 260.018 143.813 261.082 143.453C262.147 143.093 262.366 141.012 261.615 138.758C260.863 136.504 260.175 134.156 258.343 135.424C256.512 136.692 257.06 137.928 257.796 140.12Z" fill="#F8A68B"/>
<path d="M198.853 364.809L178.005 344.024L168.521 358.987L185.94 374.2L198.853 364.809Z" fill="#4A76D1"/>
<path d="M163.622 304.724L156.125 278.023L142.665 285.989L149.614 309.216L163.622 304.724Z" fill="#4A76D1"/>
<path d="M379.14 159.527C379.974 159.527 380.807 159.453 381.629 159.308C381.659 159.304 381.688 159.294 381.715 159.279C381.741 159.263 381.764 159.242 381.782 159.217C381.799 159.192 381.812 159.163 381.818 159.133C381.824 159.103 381.823 159.072 381.816 159.042C381.813 159.009 381.802 158.978 381.786 158.95C381.769 158.922 381.747 158.897 381.721 158.878C381.694 158.859 381.664 158.845 381.632 158.839C381.6 158.832 381.567 158.832 381.535 158.838C379.91 159.182 378.231 159.173 376.611 158.811C374.991 158.449 373.467 157.743 372.144 156.741C372.123 156.718 372.098 156.699 372.07 156.686C372.041 156.674 372.011 156.667 371.979 156.667C371.948 156.667 371.918 156.674 371.889 156.686C371.861 156.699 371.836 156.718 371.815 156.741C371.771 156.788 371.747 156.849 371.747 156.913C371.747 156.977 371.771 157.039 371.815 157.086C373.888 158.745 376.486 159.611 379.14 159.527V159.527Z" fill="#522D34"/>
<path d="M395.496 191.471C392.233 192.977 388.664 193.7 385.072 193.584C383.493 193.501 381.981 192.92 380.752 191.925C379.655 190.966 378.847 189.719 378.42 188.325C378.019 186.868 377.916 185.345 378.117 183.847C378.319 182.349 378.821 180.907 379.594 179.608L380.424 179.342C378.909 181.702 378.318 184.539 378.765 187.308C379.058 188.756 379.764 190.088 380.799 191.143C382.014 192.289 383.606 192.952 385.276 193.005C388.603 193.062 391.904 192.394 394.948 191.049C398.16 189.723 401.165 187.941 403.869 185.759C406.345 183.77 408.64 181.565 410.725 179.169L411.272 179.467C406.985 184.605 401.592 188.709 395.496 191.471V191.471Z" fill="#779FFF"/>
<path d="M437.66 123.952C437.604 124.457 437.399 124.934 437.071 125.323C436.744 125.711 436.308 125.994 435.82 126.135C435.331 126.276 434.812 126.268 434.328 126.114C433.844 125.959 433.416 125.664 433.1 125.266C432.783 124.869 432.592 124.386 432.55 123.879C432.509 123.373 432.618 122.865 432.865 122.421C433.112 121.977 433.485 121.616 433.938 121.384C434.39 121.152 434.901 121.06 435.406 121.119C436.08 121.197 436.695 121.54 437.117 122.07C437.54 122.601 437.735 123.278 437.66 123.952Z" fill="#503C6B"/>
<path d="M445.063 122.152C445.007 122.653 444.804 123.127 444.479 123.513C444.154 123.899 443.722 124.18 443.238 124.321C442.753 124.461 442.238 124.455 441.757 124.302C441.276 124.15 440.851 123.858 440.535 123.464C440.22 123.07 440.029 122.591 439.986 122.089C439.942 121.586 440.049 121.082 440.293 120.64C440.536 120.198 440.905 119.838 441.353 119.605C441.801 119.373 442.308 119.279 442.809 119.335C443.482 119.409 444.097 119.748 444.52 120.276C444.942 120.805 445.138 121.479 445.063 122.152V122.152Z" fill="#503C6B"/>
<path d="M437.347 124.343H437.238C437.188 124.339 437.14 124.325 437.096 124.303C437.052 124.28 437.013 124.249 436.981 124.211C436.949 124.173 436.925 124.13 436.91 124.082C436.895 124.035 436.889 123.985 436.893 123.936L437.692 113.731C437.699 113.643 437.737 113.559 437.801 113.496C437.864 113.433 437.947 113.394 438.036 113.387L446.159 112.62C446.271 112.621 446.378 112.666 446.456 112.745C446.498 112.785 446.529 112.835 446.545 112.889C446.562 112.944 446.563 113.003 446.55 113.058L444.985 122.293C444.963 122.388 444.905 122.472 444.824 122.527C444.743 122.582 444.644 122.604 444.547 122.59C444.498 122.585 444.451 122.569 444.409 122.544C444.367 122.519 444.331 122.486 444.303 122.446C444.275 122.406 444.255 122.361 444.246 122.312C444.237 122.264 444.238 122.215 444.25 122.168L445.674 113.418L438.349 114.091L437.582 123.999C437.584 124.073 437.562 124.147 437.52 124.208C437.478 124.27 437.417 124.317 437.347 124.343Z" fill="#503C6B"/>
<path d="M439.131 91.9762C439.356 92.39 439.452 92.8616 439.408 93.3305C439.363 93.7994 439.179 94.2442 438.879 94.6078C438.58 94.9714 438.179 95.2372 437.727 95.3712C437.276 95.5051 436.794 95.5011 436.345 95.3596C435.896 95.218 435.499 94.9455 435.206 94.5769C434.912 94.2083 434.736 93.7605 434.699 93.2909C434.662 92.8214 434.766 92.3514 434.998 91.9415C435.23 91.5315 435.579 91.2003 436.001 90.9902C436.549 90.7171 437.181 90.6673 437.765 90.8513C438.349 91.0352 438.839 91.4385 439.131 91.9762V91.9762Z" fill="#503C6B"/>
<path d="M438.803 92.3205C438.727 92.3374 438.649 92.3298 438.579 92.2988C438.508 92.2678 438.45 92.2151 438.411 92.1484L433.716 83.9627C433.686 83.9047 433.67 83.8403 433.67 83.7749C433.67 83.7095 433.686 83.6451 433.716 83.5871C433.747 83.5307 433.792 83.4836 433.847 83.4506C433.902 83.4176 433.965 83.3998 434.029 83.3993C434.994 83.3011 435.969 83.4095 436.889 83.7171C437.81 84.0247 438.654 84.5246 439.366 85.1835C439.401 85.2184 439.429 85.2599 439.448 85.3056C439.467 85.3512 439.476 85.4002 439.476 85.4496C439.476 85.4991 439.467 85.548 439.448 85.5937C439.429 85.6393 439.401 85.6808 439.366 85.7157C439.295 85.7784 439.203 85.813 439.108 85.813C439.013 85.813 438.921 85.7784 438.849 85.7157C437.706 84.6608 436.194 84.0985 434.639 84.1506L439.053 91.804C439.1 91.8919 439.111 91.9942 439.085 92.0901C439.059 92.1861 438.997 92.2685 438.912 92.3205H438.803Z" fill="#503C6B"/>
<path d="M455.643 105.608C455.722 106.028 455.675 106.461 455.507 106.853C455.34 107.246 455.061 107.58 454.704 107.814C454.347 108.047 453.929 108.17 453.502 108.167C453.076 108.163 452.66 108.033 452.307 107.794C451.954 107.554 451.68 107.215 451.519 106.82C451.359 106.425 451.319 105.991 451.404 105.573C451.49 105.155 451.697 104.772 452.001 104.472C452.304 104.172 452.689 103.968 453.108 103.887C453.672 103.781 454.255 103.903 454.73 104.225C455.205 104.548 455.533 105.045 455.643 105.608Z" fill="#503C6B"/>
<path d="M462.718 100.663C462.796 101.082 462.749 101.515 462.582 101.908C462.415 102.3 462.135 102.634 461.778 102.868C461.422 103.102 461.004 103.224 460.577 103.221C460.15 103.217 459.735 103.088 459.382 102.848C459.029 102.608 458.755 102.27 458.594 101.874C458.433 101.479 458.393 101.045 458.479 100.627C458.565 100.21 458.772 99.8264 459.075 99.5263C459.378 99.2262 459.764 99.0225 460.182 98.941C460.747 98.8354 461.33 98.9571 461.805 99.2796C462.28 99.6021 462.608 100.099 462.718 100.663V100.663Z" fill="#503C6B"/>
<path d="M455.268 105.843C455.174 105.862 455.077 105.842 454.998 105.79C454.919 105.737 454.864 105.655 454.845 105.562L452.56 95.576C452.542 95.4911 452.554 95.4026 452.594 95.3256C452.634 95.2485 452.699 95.1877 452.779 95.1534L460.307 92.0231C460.408 91.9831 460.52 91.9831 460.62 92.0231C460.672 92.0462 460.717 92.0808 460.752 92.1243C460.787 92.1678 460.812 92.2189 460.824 92.2736L462.671 100.537C462.682 100.586 462.684 100.636 462.676 100.685C462.668 100.734 462.651 100.781 462.625 100.823C462.599 100.865 462.564 100.902 462.524 100.931C462.483 100.96 462.438 100.98 462.389 100.991C462.342 101.003 462.293 101.005 462.245 100.996C462.197 100.988 462.151 100.971 462.11 100.944C462.069 100.918 462.034 100.884 462.006 100.843C461.979 100.803 461.96 100.757 461.951 100.71L460.182 92.884L453.358 95.7325L455.565 105.405C455.577 105.453 455.579 105.503 455.571 105.552C455.563 105.602 455.545 105.649 455.519 105.691C455.493 105.733 455.458 105.77 455.418 105.798C455.378 105.827 455.332 105.848 455.283 105.859L455.268 105.843Z" fill="#503C6B"/>
<path d="M453.64 98.5654C453.552 98.5804 453.461 98.5633 453.384 98.5171C453.307 98.471 453.249 98.3989 453.221 98.3138C453.193 98.2288 453.196 98.1364 453.229 98.0534C453.263 97.9703 453.326 97.9021 453.405 97.8611L460.871 94.4961C460.962 94.4545 461.066 94.451 461.16 94.4862C461.254 94.5215 461.33 94.5926 461.372 94.6839C461.413 94.7752 461.417 94.8793 461.382 94.9732C461.346 95.0671 461.275 95.1432 461.184 95.1847L453.718 98.5497L453.64 98.5654Z" fill="#503C6B"/>
<path d="M356.226 196.589C355.771 199.99 354.462 203.221 352.423 205.98C350.404 208.907 347.884 211.411 345.709 214.213C343.511 216.907 341.718 219.907 340.387 223.118C339.899 224.419 339.609 225.785 339.527 227.172C339.347 229.081 339.268 230.999 339.292 232.916C339.292 236.688 340.747 240.898 338.666 244.373C338.624 244.441 338.557 244.49 338.479 244.51C338.402 244.529 338.319 244.516 338.251 244.475C338.182 244.433 338.133 244.366 338.114 244.288C338.095 244.21 338.108 244.128 338.149 244.06C340.027 240.929 338.838 237.142 338.713 233.746C338.653 231.846 338.694 229.944 338.838 228.048C338.883 226.618 339.104 225.199 339.495 223.823C340.567 220.83 342.087 218.017 344.003 215.481C346.053 212.616 348.526 210.112 350.67 207.342C353.292 204.297 355.006 200.577 355.616 196.605C355.616 196.229 356.273 196.214 356.226 196.605V196.589Z" fill="#779FFF"/>
<path d="M190.213 425.975C190.213 425.975 174.562 365.435 211.875 327.575C249.187 289.715 321.246 313.489 353.488 299.027C385.729 284.565 398.548 268.304 415.482 248.818C432.417 229.332 431.04 200.721 449.289 213.023C467.538 225.325 504.992 281.435 501.517 337.482C498.043 393.529 463.845 425.975 463.845 425.975H190.213Z" fill="#FFAAAA"/>
<path d="M171.776 392.246C171.776 392.246 179.602 405.847 166.439 410.793C164.53 411.497 160.382 411.028 155.749 410.793C156.892 401.324 162.949 395.689 171.776 392.246Z" fill="#98BFFF"/>
<path d="M108.373 398.741C113.35 400.666 118.264 406.567 116.668 413.469C105.9 411.481 100.172 408.649 99.3734 403.171C98.7943 399.586 102.832 399.133 108.373 398.741Z" fill="#98BFFF"/>
<path d="M158.457 373.418L161.791 375.687C163.596 373.341 165.228 370.867 166.674 368.284L167.143 368.691C165.699 371.251 164.072 373.704 162.276 376.031C163.387 376.798 164.498 377.596 165.594 378.395C167.374 376.205 168.975 373.876 170.383 371.43L170.853 371.821C169.465 374.242 167.895 376.555 166.157 378.739L168.943 380.789C170.665 378.692 172.261 376.501 173.764 374.247L174.233 374.638C172.668 376.877 171.103 379.068 169.429 381.149L172.903 383.81C174.534 381.722 175.954 379.478 177.145 377.111L177.63 377.503C176.428 379.861 175.003 382.099 173.373 384.186L175.893 386.189L175.548 386.69C169.935 382.172 164.123 377.904 158.113 373.887L158.457 373.418Z" fill="#98BFFF"/>
<path d="M135.841 310.249C135.841 310.437 135.95 310.64 135.997 310.844L128.985 314.397C129.252 315.586 129.533 316.76 129.831 317.934L129.267 318.231C127.514 311.052 125.996 303.816 124.713 296.523L125.26 296.21L125.683 298.526C127.696 297.188 129.786 295.97 131.944 294.879C131.944 295.067 132.053 295.271 132.1 295.474C129.941 296.579 127.85 297.812 125.84 299.168C125.98 299.997 126.137 300.811 126.293 301.625C128.453 300.42 130.644 299.293 132.867 298.213C132.867 298.417 132.977 298.62 133.023 298.824C130.785 299.903 128.594 301.046 126.419 302.251C126.606 303.237 126.81 304.223 127.013 305.209C129.201 303.965 131.496 302.918 133.869 302.079L134.01 302.658C131.633 303.501 129.334 304.548 127.139 305.788C127.389 307.072 127.671 308.34 127.937 309.607L134.808 305.929C134.808 306.133 134.902 306.336 134.964 306.54L128.078 310.233C128.328 311.412 128.594 312.586 128.876 313.755L135.841 310.249Z" fill="#98BFFF"/>
<path d="M122.709 323.693C119.876 327.919 113.866 334.9 106.135 332.443C97.9021 329.844 98.309 324.742 97.5577 316.791C106.589 313.191 118.781 317.762 122.709 323.693Z" fill="#98BFFF"/>
<path d="M107.089 259.57C110.893 260.854 111.143 264.907 110.971 270.135C107.011 276.661 100.344 278.367 92.1895 277.35C94.005 266.519 101.267 257.598 107.089 259.57Z" fill="#98BFFF"/>
<path d="M496.525 367.439C486.085 405.002 463.876 426.053 463.876 426.053H190.213C190.213 426.053 182.967 366.484 250.549 354.198C318.131 341.912 314.218 385.579 391.802 398.867C436.705 406.473 472.39 390.446 496.525 367.439Z" fill="#F98C8C"/>
<path d="M91.1562 426.46H581.746C581.809 426.46 581.872 426.447 581.931 426.423C581.99 426.398 582.044 426.363 582.089 426.318C582.134 426.273 582.17 426.219 582.194 426.16C582.218 426.101 582.231 426.038 582.231 425.975C582.231 425.911 582.218 425.848 582.194 425.789C582.17 425.73 582.134 425.677 582.089 425.631C582.044 425.586 581.99 425.551 581.931 425.526C581.872 425.502 581.809 425.489 581.746 425.489H91.1562C91.0925 425.489 91.0294 425.502 90.9705 425.526C90.9117 425.551 90.8582 425.586 90.8131 425.631C90.7681 425.677 90.7323 425.73 90.708 425.789C90.6836 425.848 90.671 425.911 90.671 425.975C90.671 426.038 90.6836 426.101 90.708 426.16C90.7323 426.219 90.7681 426.273 90.8131 426.318C90.8582 426.363 90.9117 426.398 90.9705 426.423C91.0294 426.447 91.0925 426.46 91.1562 426.46Z" fill="#3E2E53"/>
<path d="M186.77 377.847C188.126 363.928 193.089 350.603 201.169 339.188C209.156 327.726 219.928 318.483 232.472 312.331C247.81 304.959 265.026 303.456 281.82 303.456C290.961 303.456 300.101 303.801 309.241 304.004C318.632 304.223 328.117 304.364 337.57 304.333C356.351 304.425 375.12 303.38 393.774 301.203C396.153 300.905 398.469 300.577 400.911 300.232C402.476 299.997 403.102 302.329 401.553 302.564C383.236 305.143 364.769 306.518 346.272 306.68C327.804 306.962 309.351 306.367 290.882 305.976C273.666 305.616 255.839 305.835 239.484 312.002C226.706 317.04 215.437 325.276 206.757 335.92C198.078 346.565 192.278 359.261 189.916 372.792C189.634 374.466 189.431 376.157 189.274 377.847C189.118 379.537 186.707 379.412 186.848 377.847H186.77Z" fill="#FF5F5F"/>
<path d="M331.075 305.147C345.182 300.326 359.21 295.307 373.161 290.09C387.111 284.873 400.994 279.463 414.809 273.86C422.53 270.73 430.22 267.537 437.879 264.281C438.157 264.124 438.484 264.08 438.793 264.159C439.103 264.238 439.369 264.433 439.538 264.704C439.698 264.982 439.742 265.313 439.659 265.623C439.577 265.934 439.376 266.2 439.1 266.363C425.295 272.237 411.407 277.908 397.436 283.376C383.465 288.843 369.54 294.086 355.663 299.105C347.722 301.954 339.766 304.745 331.795 307.479C331.485 307.566 331.154 307.527 330.874 307.37C330.593 307.213 330.387 306.951 330.3 306.641C330.213 306.332 330.252 306.001 330.409 305.721C330.566 305.44 330.828 305.234 331.137 305.147H331.075Z" fill="#FF5F5F"/>
<path d="M368.059 291.467C377.731 284.435 387.3 277.272 396.763 269.978C406.227 262.685 415.519 255.334 424.638 247.926C429.855 243.689 435.036 239.411 440.18 235.092C440.408 234.869 440.714 234.744 441.033 234.744C441.352 234.744 441.658 234.869 441.886 235.092C442 235.202 442.091 235.335 442.153 235.481C442.215 235.628 442.246 235.785 442.246 235.944C442.246 236.104 442.215 236.261 442.153 236.408C442.091 236.554 442 236.687 441.886 236.797C432.704 244.519 423.417 252.104 414.027 259.554C404.636 267.004 395.125 274.345 385.494 281.576C380.121 285.614 374.716 289.61 369.28 293.565C369.142 293.646 368.99 293.699 368.832 293.721C368.674 293.743 368.513 293.733 368.359 293.692C368.204 293.652 368.059 293.581 367.933 293.484C367.806 293.386 367.7 293.265 367.621 293.126C367.465 292.847 367.423 292.518 367.505 292.209C367.587 291.899 367.785 291.634 368.059 291.467V291.467Z" fill="#FF5F5F"/>
<path d="M47.5049 300.827L48.4284 300.561C46.4323 292.795 45.5367 284.786 45.7677 276.771C45.915 259.145 51.732 242.034 62.358 227.97L61.5911 227.375C50.8189 241.61 44.9191 258.936 44.766 276.787C44.5426 284.889 45.4647 292.982 47.5049 300.827V300.827Z" fill="white"/>
<path d="M60.5737 229.989C60.5737 229.989 75.7555 224.871 81.7499 216.498C87.7444 208.124 77.4145 203.429 67.0064 214.604C56.5983 225.779 60.5737 229.989 60.5737 229.989Z" fill="white"/>
<path d="M54.814 238.785C54.814 238.676 59.6033 205.918 51.2612 212.835C42.9191 219.753 52.4664 243.575 52.4664 243.575L54.814 238.785Z" fill="white"/>
<path d="M48.7415 253.638C49.5084 253.435 78.7137 248.567 77.1172 240.413C75.5208 232.259 51.5274 245.75 51.5274 245.75L48.7415 253.638Z" fill="white"/>
<path d="M45.345 283.297C45.345 283.297 76.0058 268.178 71.3574 259.445C66.709 250.712 45.5171 271.262 45.5171 271.262L45.345 283.297Z" fill="white"/>
<path d="M47.1919 257.629C47.1919 257.629 44.5468 227.125 37.6759 235.483C30.805 243.841 45.7676 268.069 45.7676 268.069L47.1919 257.629Z" fill="white"/>
<path d="M558.284 212.929C560.62 203.358 561.594 193.505 561.18 183.661C560.674 161.968 553.194 141.014 539.847 123.905L539.08 124.5C552.291 141.441 559.699 162.184 560.21 183.661C560.618 193.409 559.66 203.166 557.361 212.648L558.284 212.929Z" fill="white"/>
<path d="M541.225 126.988C541.225 126.988 522.662 121.041 515.212 110.961C507.762 100.882 520.236 94.9812 533.117 108.41C545.998 121.839 541.225 126.988 541.225 126.988Z" fill="white"/>
<path d="M548.393 137.584C548.315 137.459 541.96 97.6576 552.228 105.968C562.495 114.279 551.32 143.375 551.32 143.375L548.393 137.584Z" fill="white"/>
<path d="M555.999 155.552C555.06 155.317 519.438 149.933 521.254 139.9C523.069 129.868 552.462 145.942 552.462 145.942L555.999 155.552Z" fill="white"/>
<path d="M560.695 191.581C560.695 191.581 523.132 173.738 528.625 163.08C534.119 152.421 560.272 176.963 560.272 176.963L560.695 191.581Z" fill="white"/>
<path d="M558.003 160.388C558.003 160.388 560.664 123.232 569.162 133.28C577.661 143.328 559.772 173.065 559.772 173.065L558.003 160.388Z" fill="white"/>
<path d="M294.169 133.906C294.019 134.537 294.068 135.198 294.31 135.8C294.294 135.93 294.294 136.061 294.31 136.191V136.535C293.481 136.113 293.512 134.97 293.59 134.141C293.635 133.416 293.793 132.703 294.06 132.028C294.31 131.926 294.574 131.863 294.842 131.84C294.468 132.47 294.238 133.176 294.169 133.906V133.906Z" fill="#EA8577"/>
<path d="M293.136 140.245L292.948 140.135H292.729C292.652 140.12 292.572 140.12 292.494 140.135V140.135H292.291C292.254 140.151 292.214 140.159 292.173 140.159C292.133 140.159 292.093 140.151 292.056 140.135C292.021 140.115 291.991 140.088 291.966 140.056C291.942 140.023 291.925 139.987 291.915 139.947C291.885 139.872 291.885 139.788 291.915 139.713C291.957 139.649 292.017 139.6 292.087 139.572C292.287 139.517 292.498 139.517 292.698 139.572H292.964C293.068 139.62 293.168 139.677 293.261 139.744C293.312 139.806 293.34 139.883 293.34 139.963C293.34 140.043 293.312 140.12 293.261 140.182C293.191 140.21 293.112 140.21 293.042 140.182H292.964H292.823L293.136 140.245Z" fill="#EA8577"/>
<path d="M267.421 126.769C267.356 126.408 267.329 126.04 267.343 125.673C267.327 124.998 267.5 124.331 267.844 123.748C267.951 123.631 268.081 123.537 268.227 123.472C268.372 123.408 268.53 123.375 268.689 123.375C268.848 123.375 269.005 123.408 269.151 123.472C269.297 123.537 269.427 123.631 269.534 123.748C270.039 124.199 270.403 124.786 270.583 125.439C270.7 125.816 270.779 126.204 270.817 126.597C270.684 126.901 270.511 127.185 270.301 127.442C270.273 126.817 270.174 126.197 270.004 125.595C269.816 125.032 269.44 124.202 268.814 124.03C268.188 123.858 268.016 125.032 267.969 125.454C267.892 126.23 267.999 127.013 268.282 127.739C268.294 127.767 268.3 127.796 268.3 127.825C268.3 127.855 268.294 127.884 268.282 127.912C267.89 127.623 267.591 127.225 267.421 126.769V126.769Z" fill="#EA8577"/>
<path d="M265.089 132.67C264.761 132.442 264.484 132.149 264.275 131.809C264.275 131.574 264.275 131.339 264.197 131.089C264.089 130.295 264.132 129.488 264.322 128.71C264.347 128.537 264.409 128.371 264.506 128.225C264.603 128.079 264.731 127.957 264.881 127.867C265.031 127.777 265.199 127.721 265.373 127.705C265.547 127.688 265.723 127.711 265.887 127.771C266.572 128.099 267.124 128.651 267.452 129.336C267.562 129.521 267.656 129.715 267.734 129.915C267.694 130.323 267.615 130.727 267.499 131.12C267.369 130.568 267.152 130.04 266.858 129.555C266.607 129.148 265.684 127.818 265.12 128.522C264.946 128.798 264.854 129.119 264.854 129.445C264.815 129.898 264.815 130.354 264.854 130.807C264.863 131.435 264.942 132.059 265.089 132.67V132.67Z" fill="#EA8577"/>
<path d="M260.081 133.718C260.125 133.35 260.299 133.009 260.571 132.756C260.844 132.504 261.197 132.357 261.568 132.341C262.366 132.341 262.929 133.108 263.321 133.718C263.54 134.078 263.728 134.454 263.915 134.829C263.872 135.179 263.798 135.525 263.696 135.862C263.164 134.532 262.037 132.106 260.973 133.233C260.347 133.89 260.676 135.033 260.973 135.784C261.183 136.428 261.472 137.043 261.834 137.615C261.376 137.481 260.978 137.194 260.707 136.801C260.629 136.629 260.566 136.457 260.488 136.269C260.127 135.47 259.986 134.59 260.081 133.718V133.718Z" fill="#EA8577"/>
<path d="M259.517 142.937C259.197 142.632 258.914 142.29 258.672 141.919C258.672 141.669 258.594 141.419 258.563 141.168C258.563 140.386 258.437 139.259 259.126 138.711C259.815 138.163 260.691 138.852 261.129 139.4L261.975 140.26C262.038 140.654 262.064 141.052 262.053 141.45C261.962 141.148 261.782 140.881 261.536 140.683L260.785 139.9C260.441 139.54 259.721 138.633 259.314 139.415C259.187 139.755 259.129 140.117 259.142 140.48C259.141 140.862 259.173 141.244 259.236 141.622C259.307 142.065 259.401 142.504 259.517 142.937V142.937Z" fill="#EA8577"/>
<path d="M298.802 228.69C295.854 229.062 292.883 229.229 289.912 229.191C288.55 229.066 287.157 225.857 285.811 220.896C292.51 220.223 296.752 225.294 298.802 228.69Z" fill="#EA8577"/>
<path d="M304.53 202.521L306.737 210.049C307.612 207.37 307.747 204.504 307.128 201.754L304.53 202.521Z" fill="#EA8577"/>
<path d="M290.256 157.352C290.256 157.101 290.116 156.851 290.053 156.6C289.254 157.73 288.257 158.706 287.111 159.48C286.782 159.699 287.111 160.216 287.408 159.997C288.494 159.275 289.456 158.381 290.256 157.352V157.352Z" fill="#EA8577"/>
<path d="M344.707 214.181C344.705 214.218 344.705 214.254 344.707 214.291V214.698C344.707 215.105 345.255 215.074 345.302 214.698C346.302 206.774 344.383 198.756 339.902 192.144L339.307 192.332C343.65 198.741 345.565 206.488 344.707 214.181Z" fill="#779FFF"/>
<path d="M411.46 246.329C411.535 241.946 410.744 237.591 409.133 233.514C407.521 229.437 405.121 225.718 402.069 222.571C401.227 221.713 400.339 220.904 399.408 220.145C398.367 219.198 397.126 218.497 395.777 218.094C395.7 218.073 395.635 218.023 395.595 217.954C395.556 217.885 395.545 217.803 395.566 217.726C395.587 217.65 395.637 217.584 395.706 217.545C395.775 217.505 395.857 217.494 395.934 217.515C398.12 218.263 400.077 219.562 401.615 221.287C403.243 222.827 404.707 224.531 405.982 226.374C408.574 230.088 410.404 234.28 411.366 238.707C411.902 241.211 412.143 243.769 412.086 246.329C412.07 246.398 412.031 246.46 411.976 246.504C411.92 246.549 411.851 246.573 411.781 246.573C411.71 246.573 411.641 246.549 411.585 246.504C411.53 246.46 411.491 246.398 411.475 246.329H411.46Z" fill="#779FFF"/>
<path d="M454.141 396.174C439.883 408.696 418.941 405.988 401.834 402.435C381.724 398.409 362.362 391.28 344.441 381.306C335.588 376.256 327.207 370.421 319.399 363.87C311.746 357.516 304.28 350.754 295.547 345.84C287.012 341.001 277.304 338.623 267.499 338.969C257.71 339.372 248.142 342.012 239.531 346.685C222.565 355.81 210.388 371.884 202.641 389.21C201.67 391.401 200.762 393.639 199.917 395.877C199.369 397.333 197.022 396.707 197.57 395.235C204.3 377.409 215.036 360.677 230.656 349.408C246.276 338.14 266.826 333.194 285.436 338.797C295.014 341.708 303.278 347.436 310.979 353.666C318.914 360.051 326.458 366.844 334.925 372.557C352.214 383.981 371.305 392.41 391.395 397.489C400.939 400.183 410.719 401.959 420.6 402.795C429.537 403.39 439.006 402.685 446.988 398.303C448.937 397.226 450.764 395.94 452.435 394.469C453.609 393.436 455.331 395.142 454.157 396.174H454.141Z" fill="#FF5F5F"/>
<path d="M443.717 400.76C443.44 400.918 443.112 400.961 442.803 400.883C442.494 400.804 442.227 400.609 442.058 400.338C441.897 400.061 441.851 399.732 441.93 399.422C442.009 399.111 442.207 398.845 442.481 398.679C456.4 392.445 468.688 383.076 478.385 371.305C483.334 365.262 487.538 358.647 490.906 351.6C496.679 339.552 499.954 326.46 500.532 313.113C501.074 317.339 501.429 321.596 501.596 325.885C500.181 334.139 497.752 342.187 494.365 349.847C491.118 357.233 486.976 364.193 482.032 370.569C472.492 382.814 460.281 392.717 446.331 399.524L443.717 400.76Z" fill="#FF5F5F"/>
<path d="M505.994 323.412C505.994 323.412 482.783 290.419 493.567 283.704C504.35 276.99 507.528 283.517 517.044 290.513C526.56 297.509 522.725 282.437 531.771 283.376C540.818 284.315 538.94 296.194 546.311 297.697C553.683 299.199 554.2 275.096 566.862 286.052C579.524 297.008 562.464 332.333 562.464 332.333L505.994 323.412Z" fill="#DCA424"/>
<path d="M498.355 326.855C498.355 326.855 490.217 317.605 496.947 311.658C503.677 305.71 515.587 320.109 520.596 317.292C525.604 314.475 521.425 296.945 533.305 296.46C545.184 295.975 546.28 304.286 552.227 303.472C558.175 302.658 560.773 281.435 573.575 289.574C586.378 297.712 569.131 327.638 569.131 327.638L498.355 326.855Z" fill="#FFC339"/>
<path d="M552.948 328.311H552.822C552.767 328.275 552.727 328.219 552.712 328.155C552.698 328.09 552.709 328.022 552.744 327.966L569.741 298.417C569.773 298.361 569.825 298.319 569.886 298.302C569.948 298.284 570.014 298.292 570.07 298.323C570.126 298.354 570.168 298.406 570.185 298.468C570.203 298.529 570.195 298.595 570.164 298.651L553.151 328.217C553.129 328.249 553.098 328.275 553.062 328.292C553.026 328.308 552.987 328.315 552.948 328.311Z" fill="#697F64"/>
<path d="M540.348 327.168C540.295 327.17 540.243 327.154 540.201 327.123C540.158 327.091 540.127 327.047 540.113 326.996L534.682 305.209C534.668 305.147 534.679 305.082 534.712 305.027C534.746 304.973 534.8 304.934 534.862 304.92C534.925 304.905 534.99 304.916 535.044 304.95C535.099 304.984 535.137 305.037 535.152 305.1L540.583 326.871C540.597 326.933 540.588 326.998 540.556 327.054C540.524 327.109 540.472 327.15 540.411 327.168H540.348Z" fill="#697F64"/>
<path d="M515.572 327.512C515.507 327.51 515.445 327.482 515.4 327.434L504.882 317.01C504.853 316.962 504.841 316.906 504.847 316.85C504.854 316.794 504.879 316.742 504.919 316.703C504.959 316.663 505.011 316.638 505.066 316.631C505.122 316.624 505.179 316.637 505.227 316.666L515.744 327.09C515.788 327.136 515.813 327.198 515.813 327.262C515.813 327.326 515.788 327.388 515.744 327.434C515.699 327.482 515.638 327.51 515.572 327.512V327.512Z" fill="#697F64"/>
<path d="M517.044 319.749C516.999 319.748 516.956 319.736 516.918 319.714C516.88 319.693 516.848 319.661 516.824 319.624L499.342 287.836C499.313 287.78 499.307 287.715 499.324 287.654C499.342 287.593 499.381 287.54 499.436 287.508C499.463 287.489 499.493 287.476 499.526 287.47C499.558 287.465 499.591 287.467 499.623 287.476C499.654 287.485 499.683 287.501 499.708 287.523C499.732 287.544 499.752 287.571 499.765 287.602L517.263 319.389C517.292 319.446 517.298 319.511 517.281 319.572C517.263 319.633 517.223 319.685 517.169 319.718L517.044 319.749Z" fill="#A7C99F"/>
<path d="M532.006 310.233C531.944 310.233 531.884 310.209 531.84 310.165C531.796 310.121 531.772 310.061 531.772 309.999L530.879 289.652C530.877 289.62 530.882 289.588 530.893 289.557C530.903 289.527 530.92 289.499 530.942 289.476C530.964 289.452 530.991 289.434 531.021 289.421C531.05 289.408 531.082 289.401 531.114 289.402C531.145 289.399 531.176 289.403 531.205 289.413C531.235 289.423 531.262 289.439 531.285 289.459C531.308 289.479 531.327 289.504 531.341 289.532C531.355 289.56 531.363 289.59 531.365 289.621L532.257 309.967C532.257 310.031 532.233 310.093 532.189 310.139C532.145 310.186 532.086 310.214 532.022 310.218L532.006 310.233Z" fill="#A7C99F"/>
<path d="M552.369 310.233H552.275C552.216 310.209 552.168 310.163 552.142 310.105C552.116 310.047 552.113 309.981 552.134 309.92L560.507 288.4C560.539 288.354 560.585 288.321 560.639 288.304C560.692 288.288 560.749 288.29 560.801 288.309C560.853 288.329 560.897 288.366 560.926 288.413C560.955 288.461 560.967 288.517 560.961 288.572L552.588 310.093C552.571 310.136 552.541 310.174 552.501 310.199C552.462 310.224 552.415 310.236 552.369 310.233Z" fill="#A7C99F"/>
<path d="M534.307 425.74C533.921 425.74 533.55 425.586 533.277 425.313C533.004 425.04 532.851 424.67 532.851 424.284V361.679C532.851 361.293 533.004 360.923 533.277 360.65C533.55 360.377 533.921 360.224 534.307 360.224C534.693 360.224 535.063 360.377 535.336 360.65C535.609 360.923 535.762 361.293 535.762 361.679V424.284C535.762 424.67 535.609 425.04 535.336 425.313C535.063 425.586 534.693 425.74 534.307 425.74Z" fill="#3E2E53"/>
<path d="M500.39 425.74H500.077C499.701 425.654 499.374 425.423 499.166 425.098C498.959 424.773 498.887 424.38 498.966 424.003L513.6 356.827C513.624 356.626 513.689 356.431 513.792 356.257C513.895 356.082 514.034 355.931 514.199 355.813C514.364 355.695 514.552 355.613 514.75 355.572C514.949 355.53 515.154 355.531 515.352 355.574C515.551 355.617 515.738 355.7 515.902 355.82C516.066 355.939 516.203 356.091 516.305 356.267C516.407 356.442 516.471 356.637 516.493 356.839C516.515 357.04 516.494 357.244 516.433 357.438L501.799 424.629C501.722 424.945 501.542 425.226 501.286 425.427C501.031 425.628 500.716 425.739 500.39 425.74Z" fill="#3E2E53"/>
<path d="M569.131 425.74C568.8 425.738 568.479 425.624 568.22 425.416C567.962 425.209 567.781 424.92 567.707 424.597L553.073 357.406C553.031 357.22 553.028 357.028 553.061 356.84C553.095 356.653 553.165 356.473 553.269 356.313C553.372 356.153 553.506 356.015 553.663 355.907C553.82 355.799 553.997 355.724 554.184 355.685C554.561 355.605 554.955 355.677 555.28 355.885C555.605 356.093 555.835 356.42 555.921 356.796L570.555 423.971C570.635 424.349 570.563 424.742 570.355 425.067C570.147 425.392 569.82 425.622 569.444 425.709L569.131 425.74Z" fill="#3E2E53"/>
<path d="M493.034 324.539V339.517C493.034 344.805 494.076 350.042 496.1 354.928C498.124 359.814 501.09 364.253 504.829 367.993C508.569 371.732 513.008 374.698 517.894 376.722C522.78 378.746 528.017 379.788 533.305 379.788C543.986 379.788 554.229 375.545 561.781 367.993C569.333 360.44 573.576 350.197 573.576 339.517V324.539H493.034Z" fill="white"/>
<path d="M560.695 369.004C563.274 366.603 565.531 363.878 567.409 360.897V324.539H560.695V369.004Z" fill="#FFEDDD"/>
<path d="M503.755 366.875C510.677 374.367 520.19 378.944 530.363 379.678V324.539H503.755V366.875Z" fill="#FFB8C9"/>
<path d="M573.576 330.737H493.034V331.065H573.576V330.737Z" fill="#E29570"/>
</svg>
