<svg width="190" height="41" viewBox="0 0 190 41" fill="none" xmlns="http://www.w3.org/2000/svg">
<g opacity="0.67">
<path d="M78.8029 8.08221V32.3293H74.5934V13.3021H74.5373L67.0162 32.3293H64.2098L56.5204 13.3021H56.4642V32.3293H52.5914V8.08221H58.6532L65.613 26.043H65.7252L73.0779 8.08221H78.8029ZM82.2828 9.93442C82.2828 9.26089 82.5073 8.69961 83.0125 8.25059C83.5176 7.80157 84.0789 7.57706 84.7524 7.57706C85.4821 7.57706 86.0995 7.80157 86.5485 8.25059C86.9975 8.69961 87.2782 9.26089 87.2782 9.93442C87.2782 10.6079 87.0537 11.1692 86.5485 11.6182C86.0434 12.0673 85.4821 12.2918 84.7524 12.2918C84.0228 12.2918 83.4615 12.0673 83.0125 11.6182C82.5635 11.1131 82.2828 10.5518 82.2828 9.93442ZM86.8292 14.9298V32.3293H82.7319V14.9298H86.8292ZM99.2333 29.3545C99.8507 29.3545 100.524 29.2422 101.254 28.9055C101.984 28.6248 102.657 28.232 103.274 27.7829V31.5996C102.601 31.9925 101.871 32.2731 101.029 32.4415C100.187 32.6099 99.2895 32.7221 98.2792 32.7221C95.6973 32.7221 93.6206 31.9364 92.049 30.3087C90.4213 28.681 89.6355 26.6043 89.6355 24.1347C89.6355 21.3283 90.4774 19.0271 92.1051 17.231C93.7328 15.4349 96.0341 14.5369 99.0649 14.5369C99.8507 14.5369 100.637 14.6491 101.366 14.8175C102.152 14.9859 102.769 15.2665 103.218 15.491V19.4199C102.601 18.9709 101.927 18.578 101.31 18.3535C100.637 18.129 99.963 17.9606 99.2894 17.9606C97.6618 17.9606 96.3708 18.4658 95.3605 19.5322C94.3502 20.5986 93.9012 22.0018 93.9012 23.7979C93.9012 25.5378 94.4064 26.941 95.3605 27.8952C96.3147 28.8494 97.6056 29.3545 99.2333 29.3545ZM114.893 14.6491C115.23 14.6491 115.51 14.6491 115.791 14.7052C116.072 14.7614 116.296 14.8175 116.464 14.8736V19.0271C116.24 18.8587 115.959 18.6903 115.51 18.578C115.061 18.4658 114.612 18.3535 113.995 18.3535C112.985 18.3535 112.143 18.8025 111.469 19.6445C110.796 20.4864 110.403 21.7773 110.403 23.5734V32.3293H106.305V14.9298H110.403V17.68H110.459C110.852 16.7258 111.413 15.9962 112.143 15.4349C112.928 14.9298 113.826 14.6491 114.893 14.6491ZM116.689 23.9101C116.689 21.0476 117.531 18.7464 119.102 17.0626C120.73 15.3788 122.975 14.5369 125.838 14.5369C128.532 14.5369 130.665 15.3226 132.18 16.9503C133.696 18.578 134.481 20.767 134.481 23.5173C134.481 26.3236 133.639 28.5687 132.068 30.2525C130.44 31.9364 128.251 32.7783 125.445 32.7783C122.751 32.7783 120.618 31.9925 119.046 30.4209C117.475 28.7932 116.689 26.6043 116.689 23.9101ZM120.955 23.7418C120.955 25.5378 121.348 26.941 122.189 27.8952C123.031 28.8494 124.21 29.3545 125.725 29.3545C127.185 29.3545 128.363 28.9055 129.149 27.8952C129.935 26.941 130.328 25.5378 130.328 23.6295C130.328 21.7773 129.935 20.3741 129.149 19.3638C128.363 18.4097 127.185 17.9045 125.782 17.9045C124.266 17.9045 123.144 18.4097 122.302 19.4199C121.348 20.4864 120.955 21.8896 120.955 23.7418ZM140.599 19.5322C140.599 20.0935 140.768 20.5986 141.161 20.9354C141.553 21.2722 142.339 21.665 143.63 22.1702C145.258 22.8437 146.436 23.5734 147.054 24.3592C147.727 25.2011 148.064 26.1552 148.064 27.3339C148.064 28.9616 147.447 30.2525 146.156 31.2628C144.921 32.2731 143.181 32.7221 141.048 32.7221C140.319 32.7221 139.533 32.6099 138.635 32.4415C137.737 32.2731 137.007 32.0486 136.39 31.768V27.7268C137.119 28.232 137.961 28.681 138.803 28.9616C139.645 29.2422 140.431 29.4106 141.161 29.4106C142.059 29.4106 142.788 29.2984 143.181 29.0177C143.63 28.7371 143.855 28.3442 143.855 27.7268C143.855 27.1655 143.63 26.7165 143.181 26.2675C142.732 25.8746 141.834 25.4256 140.599 24.9204C139.084 24.303 138.017 23.5734 137.4 22.7876C136.783 22.0018 136.446 20.9915 136.446 19.7567C136.446 18.1851 137.063 16.8942 138.298 15.8839C139.533 14.8736 141.161 14.3685 143.125 14.3685C143.742 14.3685 144.416 14.4246 145.146 14.593C145.875 14.7614 146.549 14.9298 147.054 15.0981V19.0832C146.493 18.7464 145.875 18.4097 145.146 18.129C144.416 17.8484 143.686 17.7361 143.013 17.7361C142.227 17.7361 141.61 17.9045 141.217 18.1851C140.824 18.578 140.599 18.9709 140.599 19.5322ZM149.804 23.9101C149.804 21.0476 150.646 18.7464 152.218 17.0626C153.845 15.3788 156.09 14.5369 158.953 14.5369C161.647 14.5369 163.78 15.3226 165.295 16.9503C166.811 18.578 167.597 20.767 167.597 23.5173C167.597 26.3236 166.755 28.5687 165.183 30.2525C163.555 31.9364 161.366 32.7783 158.56 32.7783C155.866 32.7783 153.733 31.9925 152.161 30.4209C150.646 28.7932 149.804 26.6043 149.804 23.9101ZM154.07 23.7418C154.07 25.5378 154.463 26.941 155.305 27.8952C156.147 28.8494 157.325 29.3545 158.841 29.3545C160.3 29.3545 161.479 28.9055 162.264 27.8952C163.05 26.941 163.443 25.5378 163.443 23.6295C163.443 21.7773 163.05 20.3741 162.264 19.3638C161.479 18.4097 160.3 17.9045 158.897 17.9045C157.381 17.9045 156.259 18.4097 155.417 19.4199C154.519 20.4864 154.07 21.8896 154.07 23.7418ZM181.235 18.2974H175.118V32.3293H170.964V18.2974H168.046V14.9298H170.964V12.5163C170.964 10.7202 171.582 9.20476 172.76 8.02608C173.939 6.84741 175.454 6.28613 177.307 6.28613C177.812 6.28613 178.261 6.34226 178.654 6.34226C179.047 6.34226 179.383 6.45452 179.664 6.56677V10.1028C179.552 10.0467 179.271 9.93442 178.934 9.82216C178.597 9.70991 178.205 9.65378 177.756 9.65378C176.914 9.65378 176.24 9.93442 175.791 10.4396C175.342 10.9447 175.118 11.7866 175.118 12.7969V14.8736H181.235V10.9447L185.333 9.70991V14.8736H189.486V18.2413H185.333V26.3797C185.333 27.4462 185.557 28.1758 185.894 28.6248C186.287 29.0739 186.904 29.2984 187.746 29.2984C187.971 29.2984 188.251 29.2422 188.588 29.13C188.925 29.0177 189.206 28.9055 189.43 28.7371V32.1047C189.149 32.2731 188.757 32.3854 188.139 32.4976C187.522 32.6099 186.96 32.666 186.343 32.666C184.603 32.666 183.312 32.217 182.47 31.319C181.628 30.4209 181.179 29.0177 181.179 27.1655L181.235 18.2974Z" fill="#B7B7B7"/>
<path d="M19.1956 0H0V19.1956H19.1956V0Z" fill="#B7B7B7"/>
<path d="M40.4118 0H21.2162V19.1956H40.4118V0Z" fill="#B7B7B7"/>
<path d="M19.1956 21.2163H0V40.4119H19.1956V21.2163Z" fill="#B7B7B7"/>
<path d="M40.4118 21.2163H21.2162V40.4119H40.4118V21.2163Z" fill="#B7B7B7"/>
</g>
</svg>
