<svg width="81" height="79" viewBox="0 0 81 79" fill="none" xmlns="http://www.w3.org/2000/svg">
<path fill-rule="evenodd" clip-rule="evenodd" d="M81 0L79.9803 62.7292C79.9882 62.8402 79.994 62.9515 79.9977 63.0635C80.0008 63.1571 80.0023 63.251 80.0023 63.3452C80.0023 69.181 74.0701 73.912 66.753 73.912C59.4353 73.912 53.5035 69.181 53.5035 63.3452C53.5035 57.5091 59.4353 52.7783 66.753 52.7783C69.8517 52.7783 72.702 53.6268 74.9587 55.0481L75.5263 20.1423L26.4941 23.2282V67.6758C26.4972 67.7691 26.4987 67.863 26.4987 67.9572C26.4987 73.7931 20.5667 78.5241 13.2494 78.5241C5.93191 78.5241 0 73.7931 0 67.9572C0 62.1211 5.93191 57.3901 13.2494 57.3901C16.2996 57.3901 19.109 58.2122 21.3484 59.5938V4.27352L81 0ZM26.4941 18.0723L75.6101 14.9812L75.7637 5.53397L26.4941 9.06378V18.0723Z" fill="url(#paint0_linear_130_49)"/>
<defs>
<linearGradient id="paint0_linear_130_49" x1="78.804" y1="0.539755" x2="37.243" y2="73.9462" gradientUnits="userSpaceOnUse">
<stop offset="0.000285788" stop-color="#31CECE"/>
<stop offset="1" stop-color="#2D66D5"/>
</linearGradient>
</defs>
</svg>
