<svg width="92" height="101" viewBox="0 0 92 101" fill="none" xmlns="http://www.w3.org/2000/svg">
<path d="M1.00095 54.43C1.95126 58.8231 3.46841 63.0286 5.62744 66.9757C10.3831 75.6994 18.0481 82.7224 27.1135 86.7946C28.7599 87.549 30.4771 88.1742 32.186 88.7452C31.7441 86.9238 31.3607 85.044 31.0439 83.2226C30.9856 82.6558 30.8522 82.0889 30.7897 81.5888C29.7768 81.1553 28.8265 80.7093 27.8762 80.28C20.0196 76.3162 13.68 69.8058 9.94132 61.9658C8.35331 58.5772 7.2738 54.9969 6.70695 51.3666C6.07758 47.2236 6.07758 43.0222 6.77781 38.9459C7.47803 34.9988 8.73677 31.1726 10.5749 27.6006C12.7339 23.3951 15.7098 19.5689 19.1943 16.4345C22.8705 13.1126 27.1177 10.5368 31.7441 8.7904C36.5624 6.96898 41.6932 6.15206 46.8323 6.28126C51.959 6.4063 57.0356 7.47331 61.6621 9.54064C66.1593 11.4871 70.2857 14.313 73.7743 17.7599C77.1962 21.086 79.9179 25.0331 81.8811 29.3637C83.6025 33.044 84.682 36.9661 85.1238 40.9799C85.6239 45.2646 85.3822 49.6493 84.4235 53.8507C83.5983 57.6102 82.2062 61.2239 80.3264 64.5708C76.1959 71.8648 69.7105 77.7584 62.0122 81.2095C61.5204 81.4304 61.0369 81.6263 60.5534 81.8347L60.3283 83.3351C60.0324 85.2316 59.6573 87.0988 59.1696 88.9661L59.2571 88.8661C61.6621 88.1158 64.0087 87.178 66.2302 86.1152C75.1664 81.718 82.5188 74.4406 86.9535 65.5961C88.9208 61.5865 90.3796 57.2601 91.0757 52.8754C91.9009 48.1697 91.9009 43.2806 91.1424 38.5083C90.4421 33.9318 88.9875 29.4179 86.8993 25.279C84.4277 20.3733 81.0808 15.926 77.017 12.1957C72.824 8.32775 67.9016 5.24343 62.5707 3.16777C57.0314 1.01291 51.0837 -0.0541012 45.1359 0.0125868C39.2049 0.0834429 33.3071 1.3005 27.8179 3.5804C22.5412 5.77277 17.723 8.97379 13.8634 12.7875C9.93715 16.6137 6.64026 21.1944 4.29784 26.1418C2.33055 30.3515 1.00095 34.9321 0.367417 39.5669C-0.274456 44.5227 -0.0827275 49.5993 1.00095 54.43Z" fill="url(#paint0_linear_130_36)"/>
<path d="M45.5525 31.1516V31.2391C39.3714 31.2391 34.3698 36.1949 34.3698 42.276C34.3698 48.3571 39.3714 53.3129 45.5525 53.3129C51.7211 53.3129 56.7311 48.3571 56.7311 42.2177C56.7311 36.1032 51.7253 31.1516 45.5525 31.1516Z" fill="url(#paint1_linear_130_36)"/>
<path d="M67.3515 35.8198C68.2977 37.9538 68.9395 40.2087 69.2521 42.5303C69.6273 45.1645 69.5064 47.7945 68.9979 50.3036C68.5519 52.5668 67.7308 54.7634 66.6513 56.7682C65.1925 59.4649 63.2294 61.849 60.8828 63.7288C61.012 64.2289 61.137 64.6624 61.1996 65.1667C61.3955 66.463 61.3955 67.7801 61.3955 69.1013L61.3496 71.0603L60.8703 71.4979C66.0678 68.4261 70.315 63.7246 72.7824 58.2603C74.0578 55.5678 74.8789 52.6794 75.2582 49.7326C75.7042 46.7191 75.5792 43.6515 75.0707 40.638C74.5622 37.7538 73.5452 34.932 72.2156 32.2978C70.5692 29.0885 68.2852 26.2126 65.626 23.7659C62.9043 21.3193 59.7949 19.3729 56.3688 18.0641C52.6343 16.6136 48.583 15.9218 44.5192 15.9926C40.5221 16.1176 36.5333 16.9971 32.8571 18.6268C29.5644 20.0689 26.5218 22.1362 23.9251 24.7121C21.3868 27.2837 19.2361 30.2972 17.7773 33.5524C16.5727 36.1908 15.7475 39.075 15.3682 42.0218C14.9264 45.2853 15.0472 48.6031 15.7475 51.8041C16.3227 54.6925 17.3313 57.4517 18.7943 60.0234C21.2617 64.5373 24.9421 68.4344 29.3768 71.1228V69.3639C29.3768 67.9885 29.3143 66.7339 29.5686 65.4168L29.952 63.7288C27.2845 61.403 25.1338 58.5813 23.675 55.3844C22.7247 53.2546 22.0912 50.9955 21.7744 48.6781C21.4618 46.2982 21.5202 43.8515 21.962 41.4674C22.4121 39.1459 23.1624 36.9452 24.246 34.882C25.5131 32.3145 27.2887 30.0555 29.4477 28.1132C31.6026 26.1709 34.0742 24.6662 36.7375 23.5992C39.7135 22.4697 42.952 21.9028 46.1197 21.9612C49.2874 22.032 52.4593 22.7781 55.3769 24.0327C58.036 25.2289 60.3826 26.8544 62.475 28.8634C64.5006 30.8682 66.1511 33.2523 67.3515 35.8198Z" fill="url(#paint2_linear_130_36)"/>
<path d="M45.553 56.5724C39.4344 56.5724 34.4578 61.499 34.4578 67.5467C34.4578 100.032 45.553 100.032 45.553 100.032C45.553 100.032 56.644 100.032 56.644 67.5467C56.644 61.499 51.6758 56.5724 45.553 56.5724Z" fill="url(#paint3_linear_130_36)"/>
<path d="M45.6403 0C45.4694 0 45.2943 0 45.1234 0.004168C39.1924 0.0750241 33.2946 1.29208 27.8054 3.57198C22.5412 5.77269 17.723 8.97371 13.8634 12.7874C9.93715 16.6137 6.64026 21.1943 4.29784 26.1417C2.33055 30.3514 1.00095 34.932 0.367417 39.5669C-0.274456 44.5226 -0.0827275 49.5992 1.00095 54.43C1.95126 58.823 3.46841 63.0285 5.62744 66.9756C10.3831 75.6993 18.0481 82.7224 27.1135 86.7945C28.7599 87.5489 30.4771 88.1741 32.186 88.7451C31.7441 86.9237 31.3607 85.0439 31.0439 83.2225C30.9856 82.6557 30.8522 82.0888 30.7897 81.5887C29.7768 81.1552 28.8265 80.7092 27.8762 80.2799C20.0196 76.3161 13.68 69.8057 9.94132 61.9657C8.35331 58.5771 7.2738 54.9968 6.70695 51.3665C6.07758 47.2235 6.07758 43.0221 6.77781 38.9458C7.47803 34.9987 8.73677 31.1725 10.5749 27.6005C12.7339 23.395 15.7098 19.5688 19.1943 16.4344C22.8705 13.1125 27.1177 10.5367 31.7441 8.79032C36.2373 7.09394 41.0055 6.26868 45.7987 6.26868C45.8195 6.26868 45.8362 6.26868 45.857 6.26868V0C45.7778 0 45.7111 0 45.6403 0Z" fill="url(#paint4_linear_130_36)"/>
<path d="M45.5525 31.1516V31.2391C39.3714 31.2391 34.3698 36.1949 34.3698 42.276C34.3698 48.3571 39.3714 53.3129 45.5525 53.3129C45.6525 53.3129 45.7484 53.3129 45.8484 53.3087V31.1558C45.7484 31.1516 45.6525 31.1516 45.5525 31.1516Z" fill="url(#paint5_linear_130_36)"/>
<path d="M45.0777 15.9928C44.8943 15.9928 44.7068 15.9928 44.5234 15.997C40.5263 16.122 36.5375 17.0015 32.8613 18.6311C29.5644 20.0691 26.5218 22.1364 23.9251 24.7123C21.3868 27.2839 19.2361 30.2974 17.7773 33.5526C16.5727 36.1909 15.7475 39.0752 15.3682 42.022C14.9264 45.2855 15.0472 48.6033 15.7475 51.8043C16.3227 54.6927 17.3313 57.4519 18.7943 60.0236C21.2617 64.5375 24.9421 68.4346 29.3768 71.123V69.3641C29.3768 67.9886 29.3143 66.7341 29.5686 65.417L29.952 63.7289C27.2845 61.4032 25.1338 58.5815 23.675 55.3846C22.7247 53.2547 22.0912 50.9957 21.7744 48.6783C21.4618 46.2984 21.5202 43.8517 21.962 41.4676C22.4121 39.1461 23.1624 36.9454 24.246 34.8822C25.5131 32.3147 27.2887 30.0556 29.4477 28.1134C31.6026 26.1711 34.0742 24.6664 36.7375 23.5994C39.5718 22.5241 42.6436 21.9572 45.6654 21.9572C45.7279 21.9572 45.7904 21.9572 45.8488 21.9572V16.0011C45.5904 15.997 45.3361 15.9928 45.0777 15.9928Z" fill="url(#paint6_linear_130_36)"/>
<path d="M45.8489 100.003C45.6613 100.032 45.553 100.032 45.553 100.032H45.8489V100.003Z" fill="#DEDEDE"/>
<path d="M45.553 56.5724C39.4344 56.5724 34.4578 61.499 34.4578 67.5467C34.4578 100.032 45.553 100.032 45.553 100.032C45.553 100.032 45.6572 100.032 45.8489 100.003V56.5766C45.7489 56.5766 45.653 56.5724 45.553 56.5724Z" fill="url(#paint7_linear_130_36)"/>
<defs>
<linearGradient id="paint0_linear_130_36" x1="45.8516" y1="0.00964355" x2="45.8516" y2="88.9661" gradientUnits="userSpaceOnUse">
<stop stop-color="#FA9E9E"/>
<stop offset="1" stop-color="#FF3434"/>
</linearGradient>
<linearGradient id="paint1_linear_130_36" x1="45.5504" y1="31.1516" x2="45.5504" y2="53.3129" gradientUnits="userSpaceOnUse">
<stop stop-color="#FA9E9E"/>
<stop offset="1" stop-color="#FF3434"/>
</linearGradient>
<linearGradient id="paint2_linear_130_36" x1="45.3204" y1="15.9877" x2="45.3204" y2="71.4979" gradientUnits="userSpaceOnUse">
<stop stop-color="#FA9E9E"/>
<stop offset="1" stop-color="#FF3434"/>
</linearGradient>
<linearGradient id="paint3_linear_130_36" x1="45.5509" y1="56.5724" x2="45.5509" y2="100.032" gradientUnits="userSpaceOnUse">
<stop stop-color="#FA9E9E"/>
<stop offset="1" stop-color="#FF3434"/>
</linearGradient>
<linearGradient id="paint4_linear_130_36" x1="22.9285" y1="0" x2="22.9285" y2="88.7451" gradientUnits="userSpaceOnUse">
<stop stop-color="#FA9E9E"/>
<stop offset="1" stop-color="#FF3434"/>
</linearGradient>
<linearGradient id="paint5_linear_130_36" x1="40.1091" y1="31.1516" x2="40.1091" y2="53.3129" gradientUnits="userSpaceOnUse">
<stop stop-color="#FA9E9E"/>
<stop offset="1" stop-color="#FF3434"/>
</linearGradient>
<linearGradient id="paint6_linear_130_36" x1="30.4789" y1="15.9928" x2="30.4789" y2="71.123" gradientUnits="userSpaceOnUse">
<stop stop-color="#FA9E9E"/>
<stop offset="1" stop-color="#FF3434"/>
</linearGradient>
<linearGradient id="paint7_linear_130_36" x1="40.1533" y1="56.5724" x2="40.1533" y2="100.032" gradientUnits="userSpaceOnUse">
<stop stop-color="#FA9E9E"/>
<stop offset="1" stop-color="#FF3434"/>
</linearGradient>
</defs>
</svg>
