<svg width="122" height="43" viewBox="0 0 122 43" fill="none" xmlns="http://www.w3.org/2000/svg">
<path fill-rule="evenodd" clip-rule="evenodd" d="M11.361 4.84381C9.64809 4.84507 8.26183 6.23235 8.2631 7.94181C8.26183 9.65127 9.64935 11.0385 11.3622 11.0398H14.4614V7.94307C14.4626 6.23361 13.0751 4.84634 11.361 4.84381C11.3622 4.84381 11.3622 4.84381 11.361 4.84381V4.84381ZM11.361 13.1068H3.09914C1.38626 13.1081 -0.00126253 14.4954 3.45978e-06 16.2048C-0.00252851 17.9143 1.38499 19.3016 3.09787 19.3041H11.361C13.0738 19.3028 14.4614 17.9155 14.4601 16.2061C14.4614 14.4954 13.0738 13.1081 11.361 13.1068Z" fill="#C4C4C4"/>
<path fill-rule="evenodd" clip-rule="evenodd" d="M30.9861 16.2047C30.9874 14.4953 29.5999 13.108 27.887 13.1067C26.1741 13.108 24.7866 14.4953 24.7878 16.2047V19.304H27.887C29.5999 19.3027 30.9874 17.9155 30.9861 16.2047ZM22.723 16.2047V7.94172C22.7243 6.23352 21.338 4.84625 19.6251 4.84372C17.9123 4.84498 16.5247 6.23226 16.526 7.94172V16.2047C16.5235 17.9142 17.911 19.3015 19.6239 19.304C21.3368 19.3027 22.7243 17.9155 22.723 16.2047Z" fill="#C4C4C4"/>
<path fill-rule="evenodd" clip-rule="evenodd" d="M19.6251 35.8297C21.338 35.8284 22.7255 34.4412 22.7243 32.7317C22.7255 31.0223 21.338 29.635 19.6251 29.6337H16.526V32.7317C16.5247 34.4399 17.9123 35.8272 19.6251 35.8297ZM19.6251 27.5654H27.8882C29.6011 27.5642 30.9886 26.1769 30.9874 24.4674C30.9899 22.758 29.6024 21.3707 27.8895 21.3682H19.6264C17.9135 21.3694 16.526 22.7567 16.5273 24.4662C16.526 26.1769 17.9123 27.5642 19.6251 27.5654Z" fill="#C4C4C4"/>
<path fill-rule="evenodd" clip-rule="evenodd" d="M8.65634e-07 24.4676C-0.00126512 26.1771 1.38626 27.5644 3.09913 27.5656C4.81201 27.5644 6.19953 26.1771 6.19827 24.4676V21.3696H3.09913C1.38626 21.3709 -0.00126512 22.7582 8.65634e-07 24.4676ZM8.26309 24.4676V32.7306C8.26056 34.4401 9.64808 35.8274 11.361 35.8299C13.0738 35.8286 14.4614 34.4414 14.4601 32.7319V24.4702C14.4626 22.7607 13.0751 21.3734 11.3622 21.3709C9.64808 21.3709 8.26183 22.7582 8.26309 24.4676C8.26309 24.4676 8.26309 24.4689 8.26309 24.4676Z" fill="#C4C4C4"/>
<path d="M40.0552 26.009L42.8637 24.3733C44.0981 26.1838 45.703 27.0891 47.6781 27.0891C48.6452 27.0891 49.4064 26.904 49.9619 26.5336C50.538 26.1427 50.8261 25.6283 50.8261 24.9905C50.8261 24.4761 50.5895 24.0235 50.1162 23.6326C49.6636 23.2417 49.1801 22.9536 48.6657 22.7684C48.1514 22.5627 47.3798 22.2952 46.3511 21.966C46.1659 21.9043 46.0322 21.8632 45.9499 21.8426C45.2092 21.5957 44.5817 21.3591 44.0673 21.1328C43.5735 20.8859 43.0488 20.567 42.4933 20.176C41.9378 19.7645 41.516 19.2605 41.228 18.6638C40.9399 18.0466 40.7959 17.3367 40.7959 16.5343C40.7959 14.9706 41.4543 13.7156 42.7711 12.7691C44.0879 11.8227 45.7235 11.3495 47.6781 11.3495C49.1389 11.3495 50.5175 11.7404 51.8137 12.5222C53.1099 13.2835 54.0769 14.2608 54.7147 15.4541L52.1223 17.0281C50.9084 15.3616 49.4373 14.5283 47.709 14.5283C46.7626 14.5283 46.0322 14.7237 45.5178 15.1147C45.024 15.485 44.7771 15.9788 44.7771 16.596C44.7771 17.1104 44.9931 17.5733 45.4252 17.9848C45.8779 18.3757 46.3408 18.6638 46.814 18.849C47.2872 19.0341 47.9559 19.2707 48.82 19.5588C49.0464 19.6205 49.211 19.672 49.3138 19.7131C52.9761 20.8859 54.8073 22.6553 54.8073 25.0214C54.8073 26.4822 54.19 27.7269 52.9556 28.7557C51.7416 29.7638 50.0134 30.2679 47.7707 30.2679C46.0425 30.2679 44.4994 29.8873 43.1414 29.126C41.8041 28.3648 40.7753 27.3257 40.0552 26.009ZM58.2021 29.7124V4.49811H62.0907V29.7124H58.2021ZM69.5593 24.7128C69.5593 25.3711 69.8165 25.9267 70.3309 26.3793C70.8658 26.8114 71.5654 27.0274 72.4295 27.0274C73.664 27.0274 74.7133 26.6159 75.5774 25.7929C76.4621 24.9699 76.9045 23.8898 76.9045 22.5524V20.9167C75.9581 21.143 74.8162 21.3591 73.4788 21.5648C70.8658 21.9763 69.5593 23.0256 69.5593 24.7128ZM65.609 25.0522C65.609 21.6986 68.0985 19.6514 73.0776 18.9107C74.8882 18.6432 76.1638 18.3963 76.9045 18.17V17.2133C76.9045 16.3491 76.5959 15.6702 75.9786 15.1764C75.3614 14.6826 74.5384 14.4357 73.5097 14.4357C71.5551 14.4357 69.868 15.2381 68.4483 16.8429L66.0719 14.806C66.9978 13.7156 68.0985 12.872 69.3742 12.2753C70.6704 11.6581 72.0283 11.3495 73.4479 11.3495C76.1021 11.3495 77.995 11.9976 79.1266 13.2938C80.2582 14.5694 80.824 16.3594 80.824 18.6638V29.7124H77.0279V27.4903C76.6576 28.2516 76.0095 28.91 75.0836 29.4655C74.1784 30.0004 73.1085 30.2679 71.874 30.2679C69.9194 30.2679 68.3866 29.7844 67.2755 28.8174C66.1645 27.8504 65.609 26.5953 65.609 25.0522ZM83.8176 20.8241C83.8176 17.9643 84.5789 15.6702 86.1014 13.9419C87.6445 12.2136 89.6299 11.3495 92.0578 11.3495C93.8272 11.3495 95.3188 11.8844 96.5328 12.9543C97.7467 14.0242 98.5079 15.2484 98.8165 16.6269L95.4834 17.5528C95.2366 16.7709 94.8148 16.1022 94.2181 15.5467C93.6214 14.9706 92.9116 14.6826 92.0886 14.6826C90.7513 14.6826 89.702 15.269 88.9407 16.4417C88.2 17.6145 87.8297 19.0753 87.8297 20.8241C87.8297 22.7582 88.2309 24.2601 89.0333 25.33C89.8357 26.3999 90.8541 26.9348 92.0886 26.9348C92.9939 26.9348 93.786 26.6262 94.465 26.009C95.1645 25.3711 95.648 24.651 95.9155 23.8486L99.2486 24.8053C98.8577 26.2456 98.0038 27.5212 96.6871 28.6322C95.3703 29.7227 93.8272 30.2679 92.0578 30.2679C89.6299 30.2679 87.6445 29.4141 86.1014 27.7064C84.5789 25.9781 83.8176 23.684 83.8176 20.8241ZM102.181 29.7124V4.49811H106.069V19.0033L112.396 11.905H117.303L110.729 19.1576L117.704 29.7124H113.137L108.199 21.9043L106.069 24.2498V29.7124H102.181Z" fill="#C4C4C4"/>
</svg>
