<svg width="107" height="91" viewBox="0 0 107 91" fill="none" xmlns="http://www.w3.org/2000/svg">
<path d="M97.9275 10.0153V5.56406C97.9275 2.44819 95.4793 0 92.3634 0H60.0919C57.4211 0 54.9729 1.11281 53.415 3.11587C51.8571 1.33537 49.4089 0 46.7381 0H14.4666C11.3507 0 8.9025 2.67075 8.9025 5.56406V10.0153C4.00612 10.0153 0 14.0214 0 18.9178V73.4456C0 78.342 4.00612 82.3481 8.9025 82.3481H40.7289C42.9546 87.2445 47.8509 90.8055 53.415 90.8055C58.979 90.8055 63.8754 87.467 66.1011 82.3481H97.9275C102.824 82.3481 106.83 78.342 106.83 73.4456V18.9178C106.83 14.0214 102.824 10.0153 97.9275 10.0153ZM55.6406 8.9025C55.6406 6.45431 57.6437 4.45125 60.0919 4.45125H92.3634C93.0311 4.45125 93.4762 4.89637 93.4762 5.56406V67.8815C93.4762 68.5492 93.0311 68.9943 92.3634 68.9943H55.6406V56.976L58.5339 58.5339C59.4242 58.979 60.537 59.4242 61.4272 59.4242C62.5401 59.4242 63.4303 59.2016 64.3205 58.5339C66.1011 57.4211 67.2139 55.6406 67.2139 53.415V47.1832C69.2169 46.7381 71.22 45.8479 72.7779 44.2899C74.781 42.2869 75.8938 39.6161 75.8938 36.7228C75.8938 31.3813 72.1102 27.1526 67.2139 26.0398V19.8081C67.2139 17.5824 66.1011 15.8019 64.3205 14.6891C62.5401 13.5763 60.3144 13.5763 58.5339 14.6891L55.6406 16.4696V8.9025ZM67.2139 42.732V30.7136C69.662 31.6039 71.4425 34.0521 71.4425 36.7228C71.4425 38.5033 70.7749 40.0612 69.4395 41.174C68.9944 42.0643 68.1041 42.5094 67.2139 42.732ZM60.7595 18.6952C61.4272 18.2501 61.8724 18.4727 62.0949 18.6952C62.3175 18.9178 62.7626 19.1404 62.7626 19.8081V53.415C62.7626 54.0827 62.3175 54.5278 62.0949 54.5278C61.8724 54.7504 61.4272 54.9729 60.7595 54.5278L38.7259 41.8417V31.1587L60.7595 18.6952ZM13.3537 5.56406C13.3537 4.89637 13.7989 4.45125 14.4666 4.45125H46.7381C49.1863 4.45125 51.1894 6.45431 51.1894 8.9025V19.1404L35.8326 28.0429H27.8203C24.7044 28.0429 22.0337 30.7136 22.0337 33.8295V39.8387C22.0337 42.9545 24.7044 45.6253 27.8203 45.6253H35.8326L51.1894 54.5278V69.2169H14.4666C13.7989 69.2169 13.3537 68.7718 13.3537 68.1041V5.56406ZM34.2746 32.4941V41.174H27.8203C27.1526 41.174 26.4849 40.5064 26.4849 39.8387V33.8295C26.4849 33.1618 27.1526 32.4941 27.8203 32.4941H34.2746ZM102.379 73.4456C102.379 75.8938 100.376 77.8969 97.9275 77.8969H64.5431C63.6529 77.8969 62.7626 78.5645 62.3175 79.4548C61.2047 83.4609 57.4211 86.1317 53.1924 86.1317C48.9637 86.1317 45.4027 83.4609 44.0674 79.4548C43.8448 78.5645 42.9546 77.8969 41.8417 77.8969H8.9025C6.45431 77.8969 4.45125 75.8938 4.45125 73.4456V18.9178C4.45125 16.4696 6.45431 14.4666 8.9025 14.4666V67.8815C8.9025 70.9974 11.3507 73.4456 14.4666 73.4456H53.415H53.6376H92.3634C95.4793 73.4456 97.9275 70.9974 97.9275 67.8815V14.4666C100.376 14.4666 102.379 16.4696 102.379 18.9178V73.4456ZM79.2322 23.3691C82.7932 26.9301 84.7963 31.8264 84.7963 36.9454C84.7963 42.0643 82.7932 46.7381 79.2322 50.5217C78.7871 50.9668 78.1194 51.1894 77.6743 51.1894C77.2292 51.1894 76.5615 50.9668 76.1164 50.5217C75.2261 49.6314 75.2261 48.296 76.1164 47.4058C78.7871 44.735 80.345 40.9515 80.345 37.1679C80.345 33.1618 78.7871 29.6008 76.1164 26.9301C75.2261 26.0398 75.2261 24.7044 76.1164 23.8142C77.0066 22.9239 78.342 22.4788 79.2322 23.3691Z" fill="url(#paint0_linear_130_47)"/>
<defs>
<linearGradient id="paint0_linear_130_47" x1="51.1292" y1="90.3965" x2="83.8519" y2="4.9084" gradientUnits="userSpaceOnUse">
<stop stop-color="#FF7A00"/>
<stop offset="1" stop-color="#FFDD2A"/>
</linearGradient>
</defs>
</svg>
